<svg width="38" height="15" viewBox="0 0 38 15" fill="none" xmlns="http://www.w3.org/2000/svg">
<path fill-rule="evenodd" clip-rule="evenodd" d="M28.2911 0C28.613 0.66067 28.7514 1.3065 29.0215 1.97209C29.319 2.70468 29.6324 3.46643 30.0396 4.17738C30.8005 5.50619 32.0423 6.40378 33.2131 7.6248C34.1264 8.57736 36.6511 11.797 37.1208 12.3048C37.4142 12.6222 37.6027 13.0901 37.8042 13.4346C37.9183 13.6296 38.0409 14.1218 37.9868 14.3219C37.1062 14.2602 36.17 14.1927 35.3084 14.3219C35.0281 14.364 34.0666 14.7261 33.7965 14.6837C33.4985 14.637 33.6749 14.353 33.5619 14.1801C33.2414 13.6895 32.8832 13.1882 32.6491 12.6805C32.4099 12.1615 30.8102 8.94337 29.9044 7.89767C29.4388 7.36026 29.0905 6.81813 28.5716 6.30029C28.032 5.76176 27.5846 5.24504 26.6985 4.90401C26.7904 4.43763 27.2135 3.92875 27.4587 3.4833C27.6984 3.04752 27.8114 2.66699 27.8992 2.20257C27.9827 1.76151 28.2499 1.3297 28.1478 0.880162C28.0947 0.646322 27.8508 0.489796 27.7607 0.283052C27.7088 0.164056 27.569 0.268704 27.7667 0.119412C27.859 0.0498051 28.1734 0.0495666 28.2911 0ZM27.552 0.344538C27.7052 0.867456 27.2006 1.58797 27.0194 2.10371C26.8297 2.64387 26.6028 3.17153 26.3983 3.70807C26.2969 3.97415 26.1021 4.20818 25.9764 4.46591C25.8356 4.7551 25.7704 5.0569 25.626 5.34727C25.3379 5.92594 24.9408 6.48097 25.0538 7.09691C25.152 7.63256 25.2693 8.20993 25.549 8.71869C25.8809 9.32236 26.1929 9.89244 26.2677 10.5357C26.3386 11.1476 26.102 11.7846 25.8465 12.3709C25.756 12.5785 25.0731 14.0839 24.8661 14.0623C24.7086 13.38 23.8669 12.712 23.3248 12.1206C22.7011 11.4405 21.7878 10.8516 20.8833 10.3099C21.1372 10.2476 21.3782 9.91846 21.5004 9.76323C21.6693 9.54893 21.8656 9.33186 22.0592 9.12633C22.4136 8.74999 23.4131 7.25412 23.7182 6.87949C24.0795 6.43597 26.4895 1.95797 26.4358 1.49388C26.4117 1.2864 26.3926 1.20961 26.5682 1.0526C26.7981 0.846896 27.289 0.543609 27.552 0.344538ZM21.972 0.136972C21.972 0.343477 22.0016 0.381019 21.8055 0.519381C21.6395 0.636452 21.4246 0.721023 21.2635 0.847583C20.9023 1.13136 20.5855 1.43887 20.3283 1.76458C19.8286 2.39773 19.4977 3.14689 19.3328 3.84528C19.1509 4.61615 19.2567 5.40694 19.1765 6.18267C19.1466 6.47101 19.0676 6.81155 18.7631 7.04362C18.4907 7.25131 17.9949 7.40343 17.6202 7.52216C16.7627 7.79378 16.0398 8.15282 15.3862 8.6029C15.2268 8.71262 15.183 8.96273 15.0019 9.05371C14.819 9.14563 14.2629 9.41826 14.0488 9.47828C13.5511 9.61788 11.6123 9.48581 11.086 9.42804C10.5613 9.37046 9.81478 9.09562 9.35177 8.95121C8.69469 8.74624 7.86495 8.31166 6.86256 7.64747C9.70106 6.96622 12.9761 6.32375 15.5107 5.23287C15.5251 5.36275 15.8856 5.7218 15.9226 5.61469C16.1595 4.93017 16.3185 4.23659 16.5523 3.55231C16.6144 3.37059 16.6763 3.18829 16.7885 3.01671C16.8446 2.93078 16.1874 2.8648 15.9226 2.93063C14.9362 3.17598 13.9127 3.29575 12.874 3.43963C10.96 3.70467 8.78406 3.80632 7.12978 4.53063C6.42401 4.83967 5.72126 5.2343 5.14874 5.6243C4.51312 6.05735 3.92233 6.7713 3.83541 7.37409C2.68641 7.04891 1.18459 7.18931 0 7.25668C0.429863 6.57679 1.83046 5.90636 2.69433 5.44306C3.40791 5.06023 4.10586 4.66365 4.89308 4.33842C6.64963 3.61268 8.42068 2.92562 10.4467 2.51468C11.4495 2.31132 12.4509 2.10594 13.4948 2.0005C14.0639 1.94297 14.6415 1.92536 15.2137 1.88918C15.7719 1.85383 15.9846 1.77887 16.3973 1.53222C17.1684 1.07152 18.2283 0.968804 19.2219 0.803458C20.1985 0.640959 21.1368 0.502774 21.972 0.136972Z" fill="#49E9B9"/>
</svg>
