<svg width="48" height="17" viewBox="0 0 48 17" fill="none" xmlns="http://www.w3.org/2000/svg">
<path fill-rule="evenodd" clip-rule="evenodd" d="M1.38186 4.99269C0.46062 7.44915 0 9.28716 0 10.5067C0 11.99 0.247377 14.1544 0.74213 17C2.46474 17 17.9461 17 47.1863 17C48.3932 13.0145 47.6965 10.8628 45.0962 10.545C42.4958 10.2272 40.3357 9.94026 38.6158 9.68417L17.029 0.0714772C16.6136 -0.11349 16.1268 0.0729109 15.9416 0.487817C15.9384 0.494915 15.9353 0.502058 15.9324 0.509243L14.5448 3.8714C12.1376 4.99329 10.1815 5.55423 8.67645 5.55423C7.45366 5.55423 5.76498 5.06094 3.6104 4.07436L3.61041 4.07435C2.78358 3.69575 1.80604 4.05835 1.42701 4.88425C1.41067 4.91985 1.39561 4.95602 1.38186 4.99269Z" fill="#E4E4E4"/>
</svg>
