<svg width="36" height="36" viewBox="0 0 36 36" fill="none" xmlns="http://www.w3.org/2000/svg">
<path fill-rule="evenodd" clip-rule="evenodd" d="M10 18C10 17.4477 10.4477 17 11 17H25C25.5523 17 26 17.4477 26 18C26 18.5523 25.5523 19 25 19H11C10.4477 19 10 18.5523 10 18Z" fill="black"/>
<path fill-rule="evenodd" clip-rule="evenodd" d="M18.7071 10.2929C19.0976 10.6834 19.0976 11.3166 18.7071 11.7071L12.4142 18L18.7071 24.2929C19.0976 24.6834 19.0976 25.3166 18.7071 25.7071C18.3166 26.0976 17.6834 26.0976 17.2929 25.7071L10.2929 18.7071C9.90237 18.3166 9.90237 17.6834 10.2929 17.2929L17.2929 10.2929C17.6834 9.90237 18.3166 9.90237 18.7071 10.2929Z" fill="black"/>
</svg>
