<svg width="208" height="137" viewBox="0 0 208 137" fill="none" xmlns="http://www.w3.org/2000/svg">
<path fill-rule="evenodd" clip-rule="evenodd" d="M160.715 63.5725L190.427 50.539C195.632 45.3584 200.658 41.4209 205.505 38.7264C206.954 38.2655 209.43 38.1263 206.788 41.9807C204.146 45.8352 201.541 50.0081 202.597 51.359C203.652 52.7098 206.71 51.2189 207.918 53.4156C208.724 54.8801 203.569 56.632 192.455 58.6712L170.202 75.7127L160.715 63.5725ZM40.5956 67.1624L57.3983 70.4925C40.5003 101.948 31.4382 118.62 30.2121 120.508C27.4531 124.754 30.0273 132.537 30.9781 136.635C25.0129 138.023 27.3654 129.054 19.8165 130.927C12.9262 132.636 7.08407 137.022 0.659161 131.107C-0.130744 130.379 -0.708992 128.106 1.9842 126.94C8.69391 124.035 18.6069 118.596 20.2143 116.484C22.4063 113.605 29.2001 97.1639 40.5956 67.1624Z" fill="#B28B67"/>
<path fill-rule="evenodd" clip-rule="evenodd" d="M103.067 4.36722L110.157 3.15242C125.601 18.1166 131.903 54.0677 142.195 58.8265C151.926 63.3256 165.72 58.9719 182.117 53.0931L187.138 64.2995C172.24 80.3988 140.502 94.0002 127.638 86.2354C107.07 73.8211 102.321 29.4808 103.067 4.36722Z" fill="#DB2721"/>
<path fill-rule="evenodd" clip-rule="evenodd" d="M72.158 93.3721C100.588 93.3721 121.501 93.3721 134.896 93.3721C137.762 93.3721 137.222 89.2372 136.808 87.1507C132.025 63.0702 113.355 37.1126 113.355 2.83452L95.2582 0C80.2901 24.0461 75.1139 53.6517 72.158 93.3721Z" fill="#DDE3E9"/>
<path fill-rule="evenodd" clip-rule="evenodd" d="M65.9005 68.9915C53.111 92.0353 42.3608 108.626 33.6498 118.763L20.4995 116.19C28.9703 63.7147 53.5007 24.9847 94.0907 0H97.357L101.256 0C117.502 55.3164 121.98 92.1738 114.692 110.572H58.2184C59.1118 97.1098 61.9766 82.8728 65.9005 68.9915H65.9005Z" fill="#FF4133"/>
</svg>
