<svg width="21" height="12" viewBox="0 0 21 12" fill="none" xmlns="http://www.w3.org/2000/svg">
<path fill-rule="evenodd" clip-rule="evenodd" d="M15.9801 9.73809C16.3814 9.79822 16.525 9.21052 16.57 9.02858C16.6427 8.73359 16.7261 8.4799 16.979 8.22195C17.1021 8.0965 17.2491 7.96752 17.4087 7.85935C17.5018 7.79638 17.7352 7.71433 17.7839 7.64672C17.9186 7.4599 17.7621 6.99018 17.7638 6.77996C17.765 6.64494 17.6245 6.01674 17.8768 5.9729C18.2045 5.91586 18.2899 6.4888 18.3262 6.61777C18.3676 6.76545 18.3609 6.90782 18.3859 7.05396C18.4091 7.19034 18.5273 7.2748 18.5726 7.36568C18.702 7.62542 18.3946 7.84355 18.1744 8.07754C17.9291 8.33796 17.6638 8.59097 17.4917 8.87528C17.3049 9.18373 17.3169 9.5086 17.1709 9.82088C16.9335 10.3284 15.9379 10.6051 15.1315 10.4562C14.7029 10.3771 14.793 10.1951 14.6572 9.98542C14.6057 9.90583 14.4613 9.86163 14.4182 9.75593C14.3727 9.64406 14.4144 9.49841 14.4494 9.38543C14.619 8.83842 14.8942 8.26572 15.16 7.73353C13.713 8.23417 12.1805 8.56399 10.5142 8.54522C9.68604 8.53583 9.08264 8.42421 8.48268 8.86873C8.01776 9.21324 8.01835 9.81915 7.82861 10.2476C7.62266 10.7126 7.43695 11.3084 6.9681 11.6975C6.40251 12.1672 5.63029 12.0899 5.57264 11.4636C5.52344 10.9297 5.94623 10.4236 5.87532 9.88163C5.83967 9.60893 5.66869 9.36864 5.6792 9.09242C5.68823 8.85509 5.76238 8.63215 5.83231 8.39846C5.0047 8.4615 4.36369 8.67518 3.77571 9.03364C3.22515 9.36919 2.99553 9.78353 2.54092 10.1673C2.12609 10.5175 1.75898 10.9994 0.940115 10.9874C-0.105126 10.9721 -0.170926 10.1637 0.221027 9.73167C0.421373 9.51082 0.699698 9.33795 0.954355 9.14341C1.23631 8.92813 1.26961 8.75519 1.32775 8.48015C1.37194 8.27042 1.38412 7.99333 1.68454 7.85503C1.95471 7.7305 2.29393 7.79107 2.54387 7.62604C2.78301 7.4683 2.97177 7.22949 3.18655 7.05507C3.45476 6.83732 3.7324 6.61234 3.97095 6.38119C4.48419 5.88356 5.15869 5.53733 5.86963 5.148C5.61183 5.04712 4.93212 5.15862 4.61284 5.1267C4.08831 5.07416 3.40949 4.91728 3.0031 4.69168C2.15948 4.2232 1.75407 3.6139 1.71253 2.90969C1.67256 2.23334 1.84148 1.41757 2.64159 0.914952C3.04935 0.658733 3.57143 0.434495 4.08664 0.271132C4.42968 0.162409 5.1362 -0.0747331 5.53287 0.0231858C6.44867 0.249461 4.37744 1.14938 4.10432 1.29335C3.23418 1.75208 2.72742 2.19481 2.74765 2.92859C2.7672 3.64205 3.86154 3.98125 4.77685 4.21728C5.2516 4.33971 5.82504 4.43793 6.35537 4.42898C6.95631 4.41892 7.36506 4.20209 7.91248 4.0749C8.98993 3.82461 10.0953 3.65631 11.2059 3.4877C12.2996 3.32156 13.4893 3.3591 14.6093 3.25062C15.6622 3.14863 16.6459 3.02286 17.6412 2.78233C18.6718 2.53327 19.4667 1.79042 20.5907 1.71226C21.2879 1.66385 20.9471 1.97385 20.6459 2.13283C20.2855 2.32305 19.8941 2.48875 19.5335 2.67959C18.6148 3.16561 17.6525 3.45152 16.4882 3.6368C15.6424 3.77133 14.7305 3.89716 13.8317 3.97742C12.697 4.07879 11.555 4.04712 10.4403 4.23172C9.78032 4.341 9.1394 4.48016 8.51676 4.65773C8.26171 4.73046 7.73423 4.84696 7.68699 4.9763C7.6257 5.14374 7.83902 5.14041 7.5819 5.29463C7.1488 5.55449 6.58547 5.73823 6.14805 6.00785C5.66083 6.30821 5.19738 6.5995 4.80268 6.95172C4.41122 7.3011 4.09862 7.63975 3.51889 7.88072C3.3267 7.96061 3.00045 8.10069 2.78203 8.13743C2.58099 8.17126 2.48917 8.11946 2.31711 8.18972C1.85945 8.37648 2.13365 8.95974 2.01285 9.24849C1.85837 9.61831 1.46278 9.89596 1.21647 10.239C1.56109 10.1921 1.8017 9.83366 1.97887 9.66456C2.17745 9.47489 2.42897 9.34715 2.68166 9.18324C3.21297 8.83867 3.35361 8.36741 3.98519 8.04297C5.12933 7.45533 6.9078 7.50602 7.86239 6.71828C8.01697 6.59067 8.16222 6.22184 8.34774 6.14157C8.68754 5.99457 8.65877 6.43385 8.6238 6.56424C8.50428 7.00939 8.06725 7.53547 7.49587 7.81645C7.23729 7.94369 6.87558 8.00191 6.65118 8.16706C6.59618 8.18071 6.54138 8.19448 6.48638 8.20818C6.51918 8.28153 6.53706 8.35611 6.53971 8.43186C6.54491 8.56423 6.49384 8.69333 6.4853 8.82681C6.46399 9.16286 6.58233 9.45013 6.68948 9.77205C6.76618 10.002 6.55984 10.4812 6.72424 10.6687C7.04912 9.98387 7.43115 9.19293 8.04663 8.5843C8.19208 8.44032 8.48052 8.32147 8.59503 8.17324C8.64944 8.13527 8.70384 8.09724 8.75825 8.05927C8.66289 8.00376 8.57981 7.9419 8.509 7.87361C8.13993 7.38643 8.94858 7.68766 9.2712 7.72902C9.78984 7.79552 10.4362 7.65889 10.9747 7.64864C11.4996 7.63864 12.0171 7.62765 12.5302 7.57646C13.0842 7.52127 13.659 7.4378 14.201 7.34654C14.7452 7.2548 15.248 7.06612 15.777 6.98321C15.2482 6.75619 15.0809 6.46064 14.8979 6.09156C14.7777 5.84887 14.3506 5.26 14.6194 5.01372C14.9108 4.74657 15.0148 5.15738 15.1092 5.3029C15.2691 5.54894 15.5111 5.9687 15.8073 6.1533C15.967 6.25283 16.1827 6.2419 16.3254 6.37464C16.4303 6.47231 16.4445 6.60728 16.4609 6.72051C16.5095 7.05483 16.299 7.32247 16.1114 7.62684C15.6737 8.33648 15.4968 9.09544 14.9242 9.77062C15.2725 9.79155 15.6329 9.76013 15.9801 9.73809Z" fill="black"/>
</svg>
