<svg width="16" height="12" viewBox="0 0 16 12" fill="none" xmlns="http://www.w3.org/2000/svg">
<path fill-rule="evenodd" clip-rule="evenodd" d="M4.80755 6.57684C5.08698 6.53558 5.96649 6.47528 5.71133 6.15348C5.45312 5.82798 4.76591 6.35438 4.80755 6.57684ZM13.1329 4.01413C12.9687 3.98213 12.7084 3.90757 12.5327 3.91548C12.3245 3.92487 12.1697 4.01963 11.9584 4.03217C11.5273 4.05775 11.194 3.94223 10.9123 4.23134C11.5116 4.23134 12.7104 4.35897 13.1329 4.01413ZM1.82613 10.7573C2.39647 10.8073 2.67982 9.22505 2.70997 9.01779C2.45422 9.00136 1.76465 9.31692 1.70444 9.46228C1.63844 9.62197 1.86591 9.87816 1.89351 10.0442C1.93446 10.2898 1.89105 10.5154 1.82613 10.7573ZM5.00438 1.72572C4.31766 1.76772 3.54932 1.90734 2.91907 1.66746C2.40806 1.47305 2.2188 1.06284 1.78842 0.822036C1.78842 1.51654 2.78265 2.06376 3.79436 2.28412C4.3095 2.39631 5.09886 2.2271 5.55399 2.40996C5.68599 2.46297 5.96738 2.70445 5.97769 2.80422C6.01295 3.14425 5.62706 2.83993 5.40853 2.85043C5.10475 2.86501 4.68203 3.36788 4.42884 3.52078C4.2384 3.63581 4.0234 3.72915 3.80831 3.828C3.7374 3.86062 3.37302 3.97639 3.35485 4.03236C3.33884 4.08203 3.53861 4.26458 3.58075 4.31165C3.87038 4.63586 4.21934 4.86821 4.67722 5.09691C4.90282 5.20959 5.13785 5.27235 5.36404 5.36595C5.4378 5.39659 5.73785 5.65327 5.65063 5.64246C5.77674 5.40196 6.13572 5.12341 6.37458 4.91077C6.61943 4.69276 6.94216 4.46437 7.35261 4.37609C7.53293 4.33729 7.8315 4.30399 8.01919 4.29448C8.151 4.29158 8.28152 4.29837 8.41078 4.31487C8.59896 4.36701 8.67262 4.32506 8.63156 4.18884C8.82927 3.93098 8.71279 3.60634 8.96412 3.34441C9.25916 3.03688 9.74169 2.89757 10.2945 2.93223C10.543 2.94779 10.8107 3.01476 11.0567 2.98746C11.3005 2.9604 11.5767 2.83684 11.8153 2.78359C12.742 2.57664 13.8855 2.32514 14.612 1.894C14.7223 1.82864 15.0336 1.64726 15.0581 1.55329C14.9933 1.46162 14.9285 1.37006 14.8637 1.27845C14.8467 1.14414 14.7427 1.10751 14.5517 1.16861C14.3267 1.16564 13.8999 1.32781 13.6747 1.3742C13.3888 1.43314 13.1012 1.48497 12.82 1.5515C12.3316 1.66697 11.8563 1.78558 11.3437 1.85427C10.8128 1.92532 10.5601 1.96862 10.2808 1.65276C10.0076 1.34399 10.0464 1.16342 9.41051 1.20858C8.84371 1.24873 8.36874 1.38304 7.84623 1.52475C7.49924 1.61884 7.04715 1.79213 6.69427 1.82925C6.43272 1.85681 6.15045 1.79281 5.89843 1.75982C5.58021 1.71824 5.328 1.72553 5.00438 1.72572ZM11.5876 3.51893H11.8732C11.6519 3.43726 11.4305 3.35553 11.2092 3.27386C10.8977 3.58966 10.119 3.45233 9.64701 3.6405C9.25936 3.79507 8.89547 4.45374 9.26761 4.69362C9.78491 5.02703 10.0396 4.28725 10.1864 4.11681C10.4853 3.76993 10.9354 3.51015 11.5876 3.51893ZM2.54035 4.22597C2.30876 3.95143 2.4606 3.689 2.80435 3.54333C3.30024 3.33322 3.79937 3.10304 4.28564 2.87026C3.45916 2.78884 2.86682 2.61716 2.19296 2.30055C1.41549 1.9352 1.19421 1.59759 1.21602 0.980495C1.22692 0.670743 1.15797 -0.209646 1.95401 0.0459273C2.61166 0.257082 2.70231 0.84755 3.40985 1.04771C4.10875 1.2454 4.93209 1.04036 5.66713 1.19431C5.87633 1.23817 6.43596 1.54668 6.60597 1.54526C6.83177 1.54329 7.39896 1.22983 7.61248 1.15539C8.14825 0.968696 8.84116 0.786638 9.43801 0.73283C9.8128 0.699038 9.93488 0.674821 10.2065 0.848353C10.5107 1.04264 10.6061 1.28283 10.7146 1.53526C11.8686 1.23681 13.0344 0.958255 14.221 0.714914C14.5978 0.637631 14.8566 0.538787 15.1781 0.414244C15.6384 0.235955 15.8946 0.318489 15.9783 0.687114C16.1257 1.33652 15.4939 1.75185 14.9448 2.23791C14.642 2.50596 14.4352 2.69531 13.9429 2.83221C13.4306 2.97467 12.8138 2.92877 12.2573 3.03583C12.4001 3.14505 12.4755 3.39939 12.6012 3.47618C12.7036 3.53857 13.193 3.52819 13.3581 3.58268C13.8528 3.74602 13.794 4.01864 13.4874 4.28824C13.1416 4.59231 12.6304 4.64834 12.0717 4.67484C11.8217 4.68664 11.5987 4.6888 11.3485 4.67768C11.1865 4.67052 10.6228 4.56062 10.5007 4.59317C10.3561 4.63166 10.3225 4.832 10.2567 4.9235C10.1521 5.06892 10.0357 5.21607 9.78962 5.28329C9.57659 5.34136 9.33645 5.32567 9.14277 5.24591C8.88319 5.1391 8.9544 5.01301 8.79097 4.87587C8.77555 4.73143 8.67753 4.70406 8.49681 4.79364C8.35882 4.82397 8.22102 4.85461 8.08342 4.88557C7.7988 4.95068 7.53293 5.01351 7.28238 5.12291C6.8025 5.3324 6.51188 5.68583 5.9771 5.83311C6.32606 6.20772 6.10812 6.71739 5.52089 6.91192C5.3885 6.95572 5.22634 7.00959 5.0857 7.03801C4.9809 7.0592 4.70669 7.04203 4.63587 7.07878C4.53334 7.1321 4.47696 7.63676 4.40516 7.74919C4.15825 8.1358 3.63398 8.32817 3.32362 8.67882C3.02092 9.021 3.08594 9.5521 2.99784 9.93753C2.88872 10.4149 2.81938 10.9161 2.4939 11.3591C2.27615 11.6555 1.62292 12.0069 1.04611 11.9484C0.198115 11.8626 0.566814 11.182 0.826888 10.8888C1.2281 10.4364 1.22761 10.0942 1.12585 9.59386C0.791039 9.62512 -0.0384868 9.83084 0.00138859 9.43009C0.0286924 9.15679 0.968121 8.90622 1.29734 8.76895C2.04161 8.45871 2.80327 8.09768 3.43175 7.70014C3.69153 7.53581 4.06338 7.23236 4.19557 7.00762C4.29182 6.8436 4.2712 6.68409 4.29212 6.5126C4.31137 6.35475 4.53186 6.13798 4.52096 6.00003C4.50476 5.79542 3.64704 5.4685 3.4018 5.25184C3.05235 4.9432 2.75859 4.57822 2.54035 4.22597Z" fill="black"/>
</svg>
