<svg width="57" height="33" viewBox="0 0 57 33" fill="none" xmlns="http://www.w3.org/2000/svg">
<path fill-rule="evenodd" clip-rule="evenodd" d="M17.643 16.9096C17.725 16.9272 17.7552 16.8939 17.7337 16.8096C17.6517 16.7867 17.6214 16.8199 17.643 16.9096ZM46.0863 4.07815C45.9565 4.08562 46.0299 4.16621 46.107 4.19634C46.1001 4.15696 46.0932 4.11759 46.0863 4.07815ZM38.5176 15.9246C38.595 15.8874 38.5674 15.8558 38.435 15.8302C38.3597 15.8687 38.3873 15.9002 38.5176 15.9246ZM9.18001 15.7223C8.75917 15.6798 8.43313 15.2791 8.08607 15.3635C7.65175 15.4691 7.25409 15.9457 6.95736 16.1603C7.18615 16.2758 7.43936 16.3796 7.68163 16.4836C7.93153 16.5909 7.86736 16.6289 8.11924 16.5013C8.30262 16.4086 8.44953 16.2415 8.60162 16.1275C8.78424 15.9905 9.01633 15.8686 9.18001 15.7223ZM18.8783 30.9015C18.9528 30.9054 19.0033 29.8492 19.0637 29.7039C19.198 29.3812 19.4321 29.0564 19.6911 28.7663C19.8018 28.6425 19.9993 28.4827 20.0832 28.3557C20.2125 28.1599 20.0033 28.0261 19.9443 27.8013C19.8186 27.322 19.9853 26.8985 20.2526 26.454C19.7605 26.3838 19.2859 26.2681 18.7855 26.2198C18.7855 26.644 18.7187 26.9995 18.4404 27.3884C18.3707 27.4859 18.2304 27.565 18.2905 27.6843C18.31 27.7231 18.4819 27.7483 18.5231 27.784C18.7549 27.9851 18.7923 28.1449 18.8048 28.3957C18.8466 29.2381 18.7001 30.065 18.8783 30.9015ZM15.3933 16.33C15.6653 16.4744 16.5335 15.4552 16.8321 15.461C17.467 15.4734 16.5651 16.4754 16.5099 16.598C16.7637 16.5411 17.0039 16.18 17.1397 16.04C17.2562 15.92 17.6841 15.331 17.9286 15.2946C18.4054 15.2238 18.1939 15.7684 18.1272 15.8961C17.9772 16.1835 17.8304 16.4678 17.6995 16.759C17.978 16.6635 18.1847 16.0919 18.3097 15.9051C18.4824 15.647 18.6209 15.3639 18.8903 15.1381C19.0742 14.9841 19.3768 14.7668 19.7087 14.7559C20.1122 14.7427 20.2639 15.0129 20.6274 15.0634C20.676 14.4877 20.5858 13.9091 20.6929 13.3352C19.9754 13.3446 19.2538 13.3655 18.5453 13.4423C18.1463 13.4855 17.8814 13.4838 17.6848 13.7182C17.5326 13.8999 17.4136 14.0898 17.2697 14.2741C16.7166 14.9829 16.1253 15.6866 15.3933 16.33ZM6.3146 14.1815C5.79067 14.5192 5.31696 14.8686 4.82337 15.2229C4.32847 15.578 3.64019 15.8058 3.17271 16.1725C2.74555 16.5077 2.42488 16.8935 2.01761 17.2396C1.5668 17.6227 1.19374 18.0518 0.809835 18.4629C1.20552 18.5084 1.30305 18.5135 1.55936 18.3288C1.77157 18.176 1.94524 17.992 2.15943 17.8379C2.65735 17.4794 3.13737 17.1875 3.75959 16.9066C4.36776 16.6322 5.15111 16.392 5.87849 16.2523C6.16213 16.1979 6.26635 16.2117 6.42344 16.0487C6.53614 15.932 6.57722 15.7857 6.69153 15.6662C6.93842 15.4081 7.32844 15.2631 7.71612 15.0994C7.27803 14.7753 6.75297 14.5106 6.3146 14.1815ZM41.3045 4.34683C41.1608 4.41438 41.1416 4.66805 41.0756 4.77343C40.9544 4.96698 40.7825 5.14861 40.6318 5.33344C40.3675 5.65792 40.1479 6.02118 40.1576 6.3934C40.1675 6.77599 40.6397 6.99569 41.2071 7.06507C41.8306 7.14133 42.3091 6.98733 42.8571 6.82266C43.4009 6.65917 43.8497 6.40087 44.2822 6.14002C44.6244 5.9336 44.8427 5.59738 45.2307 5.48157C45.5991 5.37157 46.0514 5.27432 46.1622 4.94794C46.238 4.72498 46.0937 4.75113 45.7824 4.79869C45.4512 4.84921 45.2114 4.98293 44.9041 5.05474C45.0751 4.80984 45.1162 4.60881 44.9056 4.36883C44.7843 4.23061 44.5569 4.0019 44.2812 3.99638C44.0997 3.99276 43.8826 4.11747 43.7153 4.15761C43.5103 4.20665 43.2833 4.22925 43.0724 4.26577C42.4474 4.37423 41.9464 4.39504 41.3045 4.34683ZM42.5361 19.772C42.7457 19.7939 43.421 18.2923 43.5137 18.0791C43.7689 17.4924 44.0045 16.8545 43.9337 16.2424C43.8592 15.597 43.5422 15.0301 43.2172 14.4238C42.9428 13.9121 42.823 13.3381 42.7232 12.8006C42.6087 12.1834 43.0057 11.6289 43.2938 11.0495C43.4268 10.7818 43.4968 10.5079 43.6138 10.2387C43.7368 9.95545 43.954 9.69857 44.064 9.4089C44.268 8.87165 44.4936 8.34372 44.6833 7.80316C44.8638 7.28892 45.3567 6.67684 45.2042 6.1546C44.9476 6.34958 44.6373 6.51958 44.3838 6.71112C44.1252 6.90657 44.2151 6.92186 44.2464 7.1928C44.298 7.6402 44.1483 8.1599 43.9824 8.59455C43.6365 9.50075 43.0249 10.3238 42.5786 11.2029C42.3493 11.6549 42.2581 12.1646 41.9335 12.5913C41.6426 12.9738 41.2401 13.3139 40.9316 13.6835C40.5933 14.0887 40.1973 14.4713 39.8274 14.8654C39.6523 15.052 39.4701 15.2348 39.3145 15.4285C39.1836 15.5918 39.0384 15.9853 38.7818 16.0485C39.6851 16.5913 40.3765 17.1472 40.999 17.8287C41.5408 18.4218 42.3788 19.0876 42.5361 19.772ZM44.4154 10.6102C45.2679 10.9386 45.6951 11.4209 46.2184 11.9386C46.7403 12.4551 47.229 12.9838 47.6936 13.5214C48.6178 14.5909 49.2978 15.6531 49.8085 16.8292C50.0388 17.3596 50.3741 17.8746 50.6135 18.394C50.8346 18.8738 50.9065 19.3621 51.2247 19.8219C51.3127 19.9488 51.3806 20.2296 51.6136 20.2744C51.8882 20.3273 52.625 20.0906 52.9027 20.047C53.8047 19.9057 54.7453 19.8771 55.6702 19.9421C55.7243 19.7419 55.3586 19.3472 55.2446 19.1521C55.0562 18.8299 54.8869 18.4862 54.6343 18.1814C54.1993 17.6567 53.6964 17.1463 53.1931 16.6518C52.6598 16.1279 52.2212 15.5658 51.6759 15.0549C51.4242 14.8192 51.0644 14.501 50.899 14.2389C50.8172 14.1094 50.7916 14.0594 50.693 13.9495C50.607 13.8535 50.5064 13.7588 50.4155 13.6639C49.2689 12.4673 48.422 11.2528 47.6849 9.94839C47.2814 9.23438 46.9441 8.51569 46.6248 7.78489C46.3247 7.09816 46.2678 6.38996 45.9344 5.70554C45.7383 5.78808 45.4094 5.77652 45.4154 5.94012C45.4165 5.97226 45.6916 6.20133 45.7218 6.24586C45.7826 6.33618 45.82 6.43159 45.8478 6.52783C45.9833 6.99545 45.7114 7.44915 45.6155 7.90841C45.5226 8.35291 45.4389 8.71683 45.1976 9.13387C44.9363 9.58543 44.5086 10.1368 44.4154 10.6102ZM24.7837 13.3735C25.617 13.8286 26.389 14.3393 27.3753 14.6468C27.8386 14.7911 28.2069 14.9957 28.732 15.0533C29.259 15.1111 29.8027 15.0784 30.3317 15.0548C30.8724 15.0306 31.3616 15.0266 31.8596 14.8871C32.0739 14.827 32.3998 14.7689 32.5828 14.6771C32.764 14.5861 32.8781 14.4385 33.0376 14.3288C33.6917 13.8788 34.4152 13.5198 35.2732 13.2482C36.2296 12.9454 36.7588 12.6016 36.8306 11.9089C36.9109 11.1333 36.8049 10.3426 36.987 9.57185C37.1523 8.87248 37.4827 8.12497 37.9833 7.49143C38.2406 7.16576 38.5577 6.8583 38.919 6.57455C39.0803 6.44801 39.2953 6.36339 39.4614 6.2464C39.6577 6.10805 39.6281 6.07052 39.6281 5.86404C38.7923 6.22973 37.8533 6.36796 36.876 6.53044C35.885 6.69523 34.8183 6.80007 34.0494 7.25909C33.6364 7.50572 33.4236 7.58067 32.865 7.61595C32.2924 7.65218 31.7143 7.66979 31.1448 7.72725C30.0999 7.83281 29.0984 8.03804 28.0946 8.24137C26.0672 8.65231 24.2948 9.33928 22.537 10.0649C21.7487 10.3903 21.0512 10.7864 20.3366 11.1693C19.4722 11.6326 18.3099 12.2533 17.8797 12.9331C19.0642 12.8658 20.2669 12.651 21.4164 12.9761C21.5037 12.3719 22.1563 11.784 22.7928 11.3506C23.3573 10.9664 24.0476 10.5824 24.7383 10.2732C26.3912 9.53348 28.5955 9.34177 30.5198 9.07558C31.5599 8.93166 32.5294 8.81941 33.5172 8.57398C33.7674 8.51183 34.497 8.23372 34.6348 8.3994C34.7228 8.50531 34.497 8.65741 34.4408 8.74339C34.3437 8.89182 34.2884 9.04617 34.232 9.20301C33.9782 9.91056 33.82 10.6316 33.5744 11.341C33.5383 11.4455 33.4901 11.918 33.1911 11.8538C32.9918 11.811 33.1766 11.0895 33.1622 10.9592C30.6254 12.0502 27.6247 12.6923 24.7837 13.3735ZM27.6351 25.5528C27.0714 25.568 26.4973 25.7586 25.9507 25.8452C25.214 25.9621 24.4408 26.0812 23.7589 26.2907C23.3959 26.4023 23.3925 26.4675 23.4918 26.7219C23.5699 26.9218 23.66 27.1153 23.7257 27.3188C23.8887 27.8238 24.071 28.3224 24.2738 28.8215C26.3735 27.7211 29.0538 27.0987 31.6731 26.6747C32.0436 26.6147 32.4211 26.5963 32.7968 26.5552C33.1258 26.5194 33.5007 26.5449 33.8127 26.5043C34.0131 26.4782 34.1943 26.3934 34.3992 26.3635C34.8424 26.299 35.3705 26.2939 35.797 26.1948C36.3677 26.0624 37.006 25.8872 37.5707 25.7067C38.187 25.5095 38.6831 25.3654 38.8085 24.9413C38.908 24.605 39.1576 24.2908 39.2352 23.9606C39.3362 23.5301 39.2108 23.1476 39.1686 22.7172C39.0708 21.7213 38.8401 20.7147 38.4369 19.7433C38.0502 18.812 37.7743 17.8585 37.5078 16.9143C37.4559 16.7303 37.3522 16.5608 37.2842 16.38C37.1709 16.0791 36.9458 16.1563 36.5109 16.1739C35.6975 16.2069 34.8374 16.0032 34.1619 15.7281C33.8429 15.5983 33.4398 15.3014 33.075 15.2376C32.7501 15.1808 32.4185 15.4564 32.1083 15.5488C31.3672 15.7694 30.4584 15.8291 29.6495 15.8639C27.8849 15.9398 26.5477 15.2186 25.3453 14.485C24.5381 15.0518 23.6634 15.5909 22.7262 16.0725C21.9539 16.4695 21.2974 16.985 20.6546 17.4576C20.0506 17.9017 19.5622 18.5925 18.742 18.9036C18.2638 19.0851 17.9072 18.9703 17.4454 18.7878C17.0788 18.6429 16.6747 18.5639 16.3056 18.4302C14.6017 17.8127 12.9926 17.1152 11.3278 16.4605C10.9636 16.3174 10.3914 15.9806 9.96289 15.9564C9.64543 15.9384 9.67049 15.9883 9.48683 16.1533C9.30892 16.3133 9.12856 16.4722 8.95197 16.6327C8.25974 17.262 7.5219 17.9115 6.96094 18.5911C8.18219 18.4082 9.33681 18.38 10.5387 18.4881C11.6443 18.5875 13.0558 18.7075 14.0346 19.0829C14.4527 19.2432 14.8633 19.4233 15.2803 19.6056C15.8038 19.8344 16.2103 20.1543 16.7898 20.3268C17.2896 20.4756 17.8305 20.543 18.35 20.6539C18.9338 20.7783 19.7619 21.0104 20.3819 20.9096C20.9101 20.8237 21.3525 20.5295 21.7501 20.3268C22.2676 20.0631 22.8963 19.8828 23.4198 19.637C24.3477 19.2015 25.3162 18.8293 26.3142 18.4401C27.5057 17.9752 28.6489 17.4409 29.8857 17.0317C30.1289 16.9512 30.3694 16.8954 30.5957 16.7992C30.8085 16.7088 30.9617 16.5433 31.2177 16.6613C31.4454 16.766 31.346 16.959 31.2771 17.0934C31.2125 17.2193 31.1528 17.2596 31.1945 17.3695C31.2332 17.4718 31.4837 17.6287 31.5698 17.7287C31.9763 18.2008 32.2666 18.7077 32.6561 19.1852C33.0351 19.6496 33.4627 20.0964 33.8151 20.5696C34.5108 21.5036 35.4821 22.3313 36.0981 23.2953C35.8144 23.3683 35.779 23.2181 35.559 23.2038C35.3184 23.1882 35.4055 23.217 35.1666 23.3252C34.8463 23.4703 34.5028 23.562 34.159 23.6752C33.3937 23.9272 32.6101 24.2238 31.7843 24.3979C30.3658 24.6971 29.0585 25.2259 27.6351 25.5528ZM52.0426 21.192C51.9936 21.4131 51.9305 21.6324 51.8793 21.8531C51.8431 22.0091 51.7041 22.2351 51.7357 22.3894C52.1011 22.281 52.4943 21.9178 52.7765 22.3151C52.9446 22.5518 52.7339 23.0215 52.6842 23.2762C53.0972 23.2236 53.0039 22.5865 53.6638 22.7921C54.1713 22.9502 53.8162 23.7537 54.2129 23.832C54.487 23.5606 54.4418 22.9449 54.5315 22.6218C54.5736 22.4704 54.5133 22.267 54.7956 22.2571C55.04 22.2486 55.2335 22.4711 55.3492 22.5728C55.4593 22.2036 55.7566 21.8759 55.6269 21.536C55.5467 21.3258 55.4645 21.1153 55.3787 20.9059C55.3282 20.7826 55.2745 20.4042 55.1037 20.3194C54.7861 20.1617 53.6253 20.4425 53.2743 20.5059C52.9541 20.5637 52.5459 20.6185 52.2512 20.7159C51.9417 20.8183 52.0365 20.9657 52.0426 21.192ZM41.7569 8.48503C42.2323 8.45236 42.6443 8.27144 43.0091 8.08281C43.6069 7.77369 43.6977 7.53157 43.8113 7.05529C43.0445 7.28999 42.4782 7.48413 41.6131 7.49392C40.6229 7.50512 40.1361 7.14044 39.6807 6.63866C39.5586 6.75559 39.3842 6.87964 39.295 7.00779C39.1824 7.16967 39.1967 7.13605 39.2294 7.30037C39.2798 7.55404 39.481 7.87912 39.6854 8.10172C40.1268 8.58234 40.9946 8.64739 41.7569 8.48503ZM22.1836 27.794H23.0827C23.0311 27.5872 22.9796 27.3803 22.928 27.1734C22.8831 26.9929 22.9577 26.7389 22.6752 26.7075C22.4412 26.6814 22.209 26.8443 21.971 26.8297C21.6993 26.8131 21.5431 26.6907 21.2282 26.7399C20.7799 26.8101 20.8695 27.1184 20.8628 27.3771C20.8603 27.4788 20.798 27.6316 20.8486 27.7304C20.9367 27.9027 20.8631 27.834 21.1359 27.8507C21.4562 27.8705 21.8537 27.8053 22.1836 27.794ZM44.472 2.87724C44.8014 2.91015 45.6544 3.35038 45.8952 3.24537C46.222 3.10287 45.2823 2.70919 45.0897 2.64723C44.1487 2.34433 42.3887 2.58366 41.7561 3.13667C42.1707 3.16199 42.6772 2.9235 43.1025 2.8843C43.5581 2.84232 44.0143 2.87796 44.472 2.87724ZM44.2424 14.2704C44.5106 14.949 44.9921 15.6761 44.9892 16.3816C44.9862 17.1149 44.7284 17.7804 44.2559 18.4518C44.0196 18.7877 43.8079 19.1273 43.5393 19.4539C43.4151 19.6051 43.3007 19.7904 43.1287 19.9224C42.9166 20.0851 42.8508 20.0731 42.5985 19.9438C42.4858 20.1249 42.3676 20.3116 41.9843 20.1899C41.7083 20.1022 41.7143 19.8848 41.6239 19.7233C41.3817 19.2903 40.8641 18.9168 40.4987 18.5223C40.1239 18.1178 39.8077 17.6827 39.393 17.2939C39.1934 17.1067 38.9556 16.9324 38.7425 16.7506C38.5808 16.6129 38.334 16.2943 38.1094 16.2134C38.0797 16.3951 38.3881 16.6595 38.5021 16.8369C38.6516 17.0698 38.7801 17.3093 38.8879 17.551C39.0977 18.0206 39.2244 18.5113 39.3841 18.9885C39.6695 19.8418 40.0062 20.6896 40.1972 21.5557C40.3749 22.3614 40.4222 23.1939 40.2872 24.0032C40.2293 24.3508 39.9048 24.6448 39.686 24.9614C39.3887 25.3918 39.0274 25.6601 38.4302 25.9654C37.3456 26.5198 36.1448 26.8516 34.8238 27.099C34.5774 27.1451 34.3484 27.1251 34.1173 27.1564C33.8578 27.1915 33.6515 27.2745 33.3695 27.3022C32.6419 27.3736 31.9017 27.4577 31.1992 27.5872C30.6455 27.6894 30.0985 27.7958 29.5508 27.9019C29.1333 27.9828 28.619 28.058 28.2171 28.1772C27.2258 28.4713 26.296 28.8164 25.3761 29.1819C25.1064 29.2892 24.9076 29.3541 24.7086 29.5128C24.4935 29.6844 24.5246 29.8057 24.4073 30.0014C24.2979 30.1841 24.1069 30.287 23.8474 30.1351C23.6048 29.9932 23.7006 29.6937 23.6809 29.518C23.6513 29.2531 23.4014 28.2404 23.1111 28.1558C22.9015 28.0946 22.2888 28.2261 22.0346 28.2436C21.7053 28.2664 21.4085 28.2658 21.0805 28.2375C21.189 28.5211 20.793 28.9045 20.6267 29.1538C20.3431 29.579 20.1224 29.9931 20.0048 30.4456C19.9248 30.7541 19.9506 31.0639 19.8751 31.376C19.7973 31.6981 19.9152 32.2032 19.2187 32.2516C18.1129 32.3283 17.8309 30.9388 17.7052 30.4729C17.5079 29.7422 17.664 29.0221 17.7804 28.2875C17.7899 28.2279 17.8381 27.9662 17.7952 27.9187C17.7602 27.88 17.4494 27.8132 17.4093 27.7954C17.0589 27.6389 17.2015 27.5557 17.3058 27.3226C17.5052 26.8773 17.4474 26.3208 17.9264 25.9314C18.2927 25.6335 19.1153 25.8145 19.5892 25.8949C19.9424 25.9549 20.2913 26.0355 20.6345 26.1154C20.8718 26.1706 21.1368 26.3357 21.3445 26.3624C21.759 26.4155 22.0644 26.0831 22.3736 25.9653C22.9313 25.753 23.5131 25.5577 24.1141 25.4154C25.2184 25.1537 26.3613 25.0035 27.4942 24.7832C28.1879 24.6485 28.8729 24.5011 29.5319 24.3063C30.0188 24.1624 30.5099 23.9599 31.0366 23.8624C31.7001 23.7396 32.3735 23.5689 33.0211 23.3992C33.71 23.2187 34.4637 23.103 35.1707 22.9567C33.6989 21.6034 32.4411 20.1558 31.4303 18.6437C31.3138 18.4694 31.2018 18.294 31.0986 18.1164C31.046 18.026 30.9169 17.6205 30.7801 17.5633C30.5313 17.4594 29.5319 17.9302 29.2536 18.0449C28.2446 18.46 27.277 18.9138 26.226 19.2911C25.3157 19.6178 24.4569 19.9968 23.5864 20.3472C23.1071 20.5403 22.6612 20.7864 22.1737 20.9813C21.6876 21.1756 21.1155 21.5375 20.5395 21.6215C20.3247 21.6529 19.9606 21.6146 19.7434 21.6035C19.4372 21.5879 19.0954 21.5706 18.7976 21.5171C18.2139 21.4125 17.597 21.2936 17.0265 21.1633C16.001 20.929 15.2062 20.3512 14.2817 19.9944C13.1674 19.5643 11.9051 19.4572 10.6597 19.2195C9.29714 18.9594 7.78585 18.9311 6.34767 18.9986C6.34767 18.1744 6.9811 17.5563 7.6723 16.8798C7.17447 16.6745 6.96442 16.5466 6.40723 16.7366C5.99383 16.8775 5.61276 17.0042 5.22933 17.1617C4.81282 17.3328 4.36955 17.4641 3.95474 17.6518C3.50393 17.8557 3.10957 18.0721 2.69326 18.3004C2.38022 18.4721 2.02364 18.6281 1.69618 18.7833C1.37278 18.9366 1.04344 18.9144 0.629852 18.8099C0.507915 18.7791 0.127028 18.6715 0.0625735 18.6197C-0.0673728 18.5152 0.0287444 18.4423 0.13664 18.3046C0.386262 17.9857 0.705143 17.6622 1.0309 17.3706C1.3217 17.1105 1.6991 16.8932 2.00357 16.6395C2.29267 16.3988 2.49932 16.1192 2.83423 15.9011C3.2087 15.657 3.65282 15.4611 4.00638 15.2011C4.18269 15.0714 4.38359 14.9331 4.39754 14.7801C4.40828 14.6627 4.20012 14.5489 4.19814 14.4647C4.19371 14.2669 4.73319 14.0658 4.95841 13.9203C5.28907 13.7066 5.61568 13.522 6.12642 13.6137C6.50137 13.6809 7.06544 13.9778 7.34484 14.1503C7.69633 14.3674 7.98769 14.6187 8.3502 14.8336C8.55403 14.9544 8.77133 15.0646 8.98194 15.1804C9.10651 15.2488 9.30393 15.4452 9.4417 15.4852C9.56486 15.5211 9.6851 15.4872 9.85726 15.4842C9.77971 15.4855 10.1723 15.527 10.1514 15.5234C10.3372 15.5547 10.5206 15.5886 10.7037 15.6257C11.4564 15.7785 12.1498 16.0362 12.829 16.2928C14.554 16.9446 16.1727 17.6393 17.8622 18.334C18.3627 18.5397 18.5002 18.5251 18.8844 18.2306C19.243 17.9558 19.5403 17.6504 19.8771 17.3655C20.4321 16.8961 21.0579 16.4396 21.7132 16.0225C22.3878 15.5932 23.1654 15.2338 23.8864 14.8367C24.0866 14.7264 24.9118 14.3539 24.8597 14.2143C24.8303 14.1354 24.5635 14.0023 24.479 13.9216C24.3529 13.8012 24.2222 13.6653 24.1292 13.5326C23.5815 12.7509 25.0029 12.6973 25.8346 12.4558C26.85 12.1608 27.8551 11.835 28.8929 11.5717C29.414 11.4395 29.9358 11.3188 30.4619 11.1962C30.9461 11.0834 31.3872 10.9004 31.8638 10.7759C32.2148 10.6842 32.9774 10.6492 33.2114 10.454C33.3495 10.3389 33.29 9.97537 33.3142 9.8413C33.3543 9.61875 33.4133 9.39745 33.506 9.18101C33.332 9.16133 33.0054 9.28135 32.8472 9.32748C32.5425 9.41631 32.2773 9.50377 31.9393 9.55963C31.216 9.67906 30.4588 9.6927 29.7462 9.82232C28.6617 10.0197 27.5053 10.1339 26.4445 10.4172C25.2231 10.7433 24.1714 11.3169 23.3134 11.936C22.8705 12.2556 22.5184 12.5628 22.2162 12.9421C22.1379 13.0404 22.0451 13.3696 21.9247 13.4382C21.7715 13.5254 21.3671 13.4336 21.1929 13.4156C21.1929 13.7061 21.2025 13.997 21.186 14.2871C21.1683 14.5932 21.2563 15.0629 21.0876 15.3453C20.9294 15.6104 20.6339 15.5556 20.3211 15.4237C19.9053 15.2485 19.6921 15.148 19.3194 15.4195C18.6711 15.8917 18.4258 16.6252 17.9811 17.1779C17.8354 17.359 17.4763 17.738 17.2799 17.3659C17.1369 17.0947 17.3742 16.7488 17.2633 16.4809C17.1117 16.6481 16.6587 17.1454 16.3002 17.144C15.807 17.1421 15.9679 16.6611 15.9843 16.465C15.6935 16.66 14.84 17.2971 14.6334 16.7864C14.4747 16.3944 14.9177 16.0054 15.2323 15.6968C15.5983 15.3377 15.958 14.9732 16.3378 14.6202C16.7095 14.2748 16.9582 13.8834 17.335 13.5358C17.0477 13.5608 16.4919 13.5018 16.6685 13.2226C16.7609 13.0766 17.0531 13.138 17.1958 13.0473C17.3444 12.9529 17.4244 12.685 17.5076 12.5613C17.9173 11.9517 18.505 11.4506 19.1845 10.955C20.3852 10.0791 21.9181 9.3799 23.4637 8.79332C25.3053 8.09449 27.2038 7.6695 29.2659 7.32788C30.2431 7.16606 31.234 7.09164 32.2218 6.97506C32.6318 6.92667 33.0477 6.89939 33.3722 6.7362C33.8559 6.49284 34.1748 6.31269 34.7578 6.15739C35.229 6.03192 35.6761 5.97404 36.1901 5.92043C36.7408 5.86291 37.3728 5.93941 37.902 5.84175C38.3418 5.76051 38.8544 5.58415 39.2539 5.44302C39.4551 5.37198 39.8114 5.33196 39.92 5.27153C40.1297 5.15495 40.2685 4.86427 40.4024 4.70772C40.0711 4.76222 39.945 4.61439 39.8563 4.43531C39.7088 4.13751 39.7073 4.23648 39.247 4.11178C38.9744 4.03789 38.8862 3.84072 38.6701 3.77075C38.4384 3.69562 38.0708 3.85762 37.7971 3.80497C37.5752 3.76221 37.3583 3.61242 37.3704 3.45297C37.3754 3.38644 37.4871 3.32738 37.4891 3.27318C37.4939 3.14616 37.3287 3.07601 37.3528 2.93678C37.3902 2.72129 37.5645 2.7577 37.4165 2.52418C37.2691 2.29173 37.3266 2.24589 37.3709 2.00496C37.3832 1.93837 37.3287 1.8311 37.4028 1.77447C37.4459 1.74138 37.6039 1.73628 37.6201 1.71956C37.6804 1.65712 37.6822 1.60583 37.6944 1.49132C37.7014 1.42609 37.6692 1.29564 37.7773 1.24737C37.8712 1.20545 38.0043 1.28336 38.0865 1.2587C38.1578 1.23729 38.2196 1.13061 38.3367 1.11774C38.7694 1.07019 38.6374 1.34669 38.8584 1.00158C38.9863 0.801683 39.0846 0.719851 39.3143 0.606176C39.414 0.635114 39.4762 0.623432 39.501 0.571012C39.5346 0.533121 39.5683 0.495288 39.6019 0.457456C39.781 0.430831 39.8067 0.515094 39.9453 0.432314C40.178 0.293377 39.9386 -0.0143215 40.4086 0.0680439C40.7495 0.127757 40.8323 0.402309 41.1889 0.468248C41.2381 0.378826 41.2317 0.117439 41.4388 0.0909924C41.6496 0.0640709 41.8101 0.305415 41.8868 0.384223C41.9366 0.316445 42.0192 0.113466 42.1014 0.0638337C42.3374 -0.0787788 42.266 0.0593863 42.4749 0.0783617C42.5077 0.102496 42.5406 0.12669 42.5734 0.150884C42.6827 0.11738 42.7902 0.0820382 42.8961 0.0446209C43.1252 0.017403 43.0436 0.032287 43.2434 0.0830464C43.4031 0.123666 43.3075 0.170096 43.5017 0.195654C43.6426 0.214096 43.7619 0.122183 43.9188 0.15035C43.9644 0.162862 44.0102 0.175433 44.0558 0.187945C44.1205 0.278019 44.2197 0.293971 44.3535 0.23574C44.5113 0.276596 44.7241 0.440793 44.892 0.435397C45.2131 0.424901 45.1375 0.147326 45.4896 0.160905C45.6201 0.165886 45.9575 0.386357 46.0506 0.451823C46.1811 0.543676 46.1442 0.623017 46.3077 0.726315C46.5446 0.875924 46.4056 0.795694 46.6318 0.863412C46.9688 0.964397 47.093 0.926209 47.2318 1.16927C47.3526 1.38067 47.4203 1.64366 47.4216 1.86763C47.4224 2.0074 47.2624 2.31563 47.5712 2.24803C47.7879 2.20059 47.7515 1.86312 47.9841 1.96897C48.161 2.04938 47.812 2.47935 47.808 2.58022C47.7963 2.87042 47.8701 2.89367 47.5837 3.11052C47.448 3.21323 47.137 3.40251 47.0682 3.53557C46.9866 3.69295 47.203 3.96555 47.2529 4.10614C47.3611 4.41129 47.2697 4.47575 46.9489 4.71555C46.9145 4.72848 46.8801 4.74146 46.8456 4.75439C46.6743 4.75415 46.6267 4.80782 46.7029 4.91527C46.6347 5.03511 46.6429 5.15062 46.5464 5.27106C46.4936 5.33688 46.2606 5.47012 46.2487 5.53523C46.2277 5.65134 46.3195 5.67168 46.4751 5.79205C47.1025 6.27735 47.3898 6.90621 47.7002 7.48994C48.2468 8.51812 48.9206 9.52097 49.5731 10.5273C49.8275 10.9195 50.0852 11.2962 50.3491 11.6929C50.6776 12.1867 51.1393 12.6375 51.5298 13.1161C51.7997 13.4468 52.0751 13.81 52.4123 14.0953C52.8367 14.4544 53.0751 14.9158 53.4472 15.3045C53.8447 15.7195 54.3088 16.1286 54.6921 16.5558C55.0587 16.9643 55.5116 17.3383 55.8597 17.7579C56.2942 18.2818 56.8003 18.9113 56.9199 19.505C56.9622 19.7154 57.0939 20.0624 56.886 20.2424C56.6708 20.4288 56.0782 20.5067 55.7775 20.3676C56.0782 20.8073 56.2651 21.2999 56.4001 21.7702C56.4583 21.9733 56.5395 22.1526 56.4683 22.3602C56.4045 22.5458 56.5102 22.4377 56.2717 22.5463C56.072 22.6371 56.1643 22.381 56.0073 22.6421C55.9742 22.6972 56.0392 22.8499 56.0368 22.9139C56.0278 23.1704 55.9973 23.4317 55.9814 23.6898C55.9693 23.8856 56.0196 24.0507 55.6366 24.03C55.3296 24.0134 55.1776 23.8087 55.0413 23.6642C54.9902 23.8942 54.9609 24.1239 54.9185 24.3546C54.8811 24.5593 54.956 24.7615 54.5387 24.7395C53.8545 24.7032 53.5848 23.9244 53.4114 23.599C53.0997 23.8569 52.9482 24.3691 52.811 24.6846C52.6805 24.9849 52.5283 25.624 51.8613 25.2308C51.4169 24.9688 51.589 24.4534 51.6688 24.1181C51.695 24.0076 52.0703 23.0358 51.8948 22.9798C51.644 23.1484 51.3519 23.4238 50.9388 23.2752C50.5676 23.1416 50.6884 22.8448 50.718 22.6306C50.802 22.0213 51.1349 21.4372 51.3817 20.8467C51.2413 20.827 50.8999 20.8094 50.7842 20.7438C50.636 20.6596 50.7274 20.6188 50.6623 20.5113C50.5743 20.3657 50.4161 20.2178 50.2913 20.0795C49.8845 19.6289 49.7591 19.1797 49.5489 18.6894C49.3459 18.2158 48.9635 17.7989 48.7608 17.3192C48.5359 16.7878 48.2965 16.2656 48.0312 15.7363C47.4521 14.5801 46.6178 13.4791 45.6587 12.4304C45.5327 12.2928 44.501 10.8055 44.3456 10.8494C44.2348 10.8808 44.1713 11.2656 44.129 11.3697C44.031 11.6105 44.0117 11.8637 43.9886 12.1119C43.6106 12.6908 44.0131 13.6898 44.2424 14.2704Z" fill="black"/>
</svg>
