<svg width="22" height="21" viewBox="0 0 22 21" fill="none" xmlns="http://www.w3.org/2000/svg">
<path d="M21.9761 12.8741V21H17.2648V13.4186C17.2648 11.515 16.5846 10.2151 14.8788 10.2151C13.5771 10.2151 12.8038 11.0903 12.4623 11.9377C12.3383 12.2406 12.3063 12.6611 12.3063 13.0859V20.9997H7.59472C7.59472 20.9997 7.65796 8.15933 7.59472 6.83019H12.3066V8.83814C12.2971 8.85395 12.2838 8.86941 12.2754 8.88451H12.3066V8.83814C12.9327 7.87474 14.0493 6.49746 16.5527 6.49746C19.6522 6.49746 21.9761 8.52262 21.9761 12.8741ZM2.66602 0C1.05439 0 0 1.05791 0 2.44784C0 3.80825 1.02382 4.89672 2.60418 4.89672H2.63475C4.278 4.89672 5.29972 3.80825 5.29972 2.44784C5.26845 1.05791 4.278 0 2.66602 0ZM0.280023 21H4.98983V6.83019H0.280023V21Z" fill="#F1F2F2"/>
</svg>
