<svg width="216" height="22" viewBox="0 0 216 22" fill="none" xmlns="http://www.w3.org/2000/svg">
<path d="M160.066 5.74902C182.087 6.87477 149.52 16.3358 119.672 17.6417C93.908 18.7691 69.0517 20.0933 46.8103 21.4001C6.27805 23.7816 -14.0273 18.6879 10.891 11.4561L19.1905 9.04743C35.2331 4.39156 67.0725 0.994974 85.732 1.94888L160.066 5.74902Z" fill="white"/>
<path opacity="0.78" d="M95.3882 15.0145C80.1869 14.1228 97.1339 5.28788 119.72 1.72255C145.207 -2.30066 164.489 1.14231 148.335 7.71889L145.727 8.7808C135.334 13.012 116.097 16.2292 105.061 15.5818L95.3882 15.0145Z" fill="#FFB7B7"/>
<path opacity="0.78" d="M211.644 4.95134C224.989 5.62717 205.057 11.3776 187.107 12.1182C170.142 12.8182 153.834 13.6531 139.428 14.4703C115.033 15.8542 103.027 12.7707 117.959 8.40115L123.218 6.86231C132.91 4.02637 152.309 1.94652 163.692 2.52299L211.644 4.95134Z" fill="#FFF082"/>
</svg>
