<svg width="133" height="61" viewBox="0 0 133 61" fill="none" xmlns="http://www.w3.org/2000/svg">
<path fill-rule="evenodd" clip-rule="evenodd" d="M121.232 28.483C118.631 28.0571 111.63 27.7642 110.338 27.7644C109.513 27.7644 108.619 27.9527 108.13 27.1959C107.73 26.5761 107.876 25.5279 107.757 24.8087C107.618 23.9733 107.421 23.1486 107.222 22.3259C106.655 19.9851 105.798 17.7581 104.598 15.6672C102.347 11.7445 99.0488 8.67181 94.8854 6.88382C90.2878 4.90959 85.0852 4.45754 80.1398 4.85798C74.8476 5.2864 70.0569 7.03147 65.0602 8.6737C60.2986 10.2386 55.3113 10.8546 50.3312 10.0904C45.3135 9.32049 41.5222 6.604 37.2899 4.02571C32.9572 1.38617 28.0058 -0.340188 22.8838 0.0566606C18.1026 0.427229 13.6959 2.39918 9.74229 5.03343C6.04325 7.49809 2.99106 10.4634 1.26787 14.6368C-0.585897 19.1262 -0.584194 24.054 2.46422 28.0215C6.88277 33.7725 15.0856 35.2597 21.9101 35.1119C25.8575 35.0266 29.7343 34.3068 33.461 32.9975C38.4312 31.2513 42.7261 28.2917 47.3758 25.8904C49.5579 24.7635 51.8134 23.8381 54.1776 23.1714C56.4718 22.5243 58.7315 22.2274 60.8086 23.6118C63.006 25.0763 64.9751 26.5149 67.4889 27.4316C69.9005 28.3112 72.4549 28.8031 75.0242 28.7833C80.0232 28.7447 84.951 27.1889 89.8062 26.1468C93.7655 25.2971 98.0017 24.4503 102.038 25.267C103.722 25.6079 106.183 26.3116 106.791 28.0601C96.5522 29.9137 92.5308 42.5622 95.4173 51.8474C96.9752 56.8589 106.34 62.7174 109.981 60.0827C112.288 58.4136 110.887 56.2223 109.981 54.7758C108.245 52.0056 107.652 48.4472 110.863 46.5186C113.633 44.8552 116.546 48.8053 116.601 48.8009C117.363 48.741 123.942 45.0244 128.475 39.601C132.946 39.8657 133.625 36.9205 132.557 34.5119C131.489 32.1033 124.825 29.072 121.232 28.483Z" fill="#191847"/>
</svg>
