<svg width="64" height="33" viewBox="0 0 64 33" fill="none" xmlns="http://www.w3.org/2000/svg">
<path fill-rule="evenodd" clip-rule="evenodd" d="M52.9188 5.73574C53.2425 6.40015 53.3816 7.04963 53.6533 7.71898C53.9525 8.45571 54.2676 9.22177 54.6771 9.93674C55.4423 11.2731 56.6912 12.1757 57.8686 13.4036C58.787 14.3616 61.326 17.5994 61.7983 18.1101C62.0934 18.4292 62.283 18.8998 62.4856 19.2463C62.6003 19.4424 62.7236 19.9373 62.6692 20.1386C61.7837 20.0765 60.8422 20.0087 59.9757 20.1386C59.6938 20.1809 58.7269 20.5451 58.4552 20.5025C58.1556 20.4555 58.3329 20.1699 58.2193 19.996C57.897 19.5026 57.5368 18.9984 57.3014 18.4879C57.0608 17.966 55.452 14.7297 54.5412 13.6781C54.0729 13.1376 53.7227 12.5924 53.2008 12.0716C52.6581 11.5301 52.2083 11.0104 51.3171 10.6675C51.4095 10.1985 51.835 9.68669 52.0816 9.23873C52.3226 8.80048 52.4363 8.41781 52.5246 7.95076C52.6086 7.50721 52.8773 7.07296 52.7746 6.62088C52.7212 6.38572 52.4759 6.22831 52.3853 6.0204C52.3331 5.90073 52.1925 6.00597 52.3914 5.85583C52.4842 5.78583 52.8003 5.78559 52.9188 5.73574ZM52.1755 6.08223C52.3295 6.6081 51.822 7.33268 51.6398 7.85135C51.449 8.39456 51.2208 8.9252 51.0152 9.46478C50.9132 9.73236 50.7174 9.96771 50.591 10.2269C50.4494 10.5177 50.3838 10.8212 50.2385 11.1132C49.9488 11.6952 49.5495 12.2533 49.6631 12.8728C49.7618 13.4114 49.8798 13.9921 50.1611 14.5037C50.4949 15.1108 50.8087 15.6841 50.8839 16.331C50.9552 16.9463 50.7173 17.5869 50.4603 18.1765C50.3693 18.3853 49.6826 19.8992 49.4744 19.8775C49.3159 19.1914 48.4695 18.5196 47.9243 17.9249C47.2971 17.2409 46.3787 16.6487 45.469 16.104C45.7244 16.0413 45.9667 15.7103 46.0897 15.5542C46.2595 15.3386 46.4569 15.1203 46.6515 14.9137C47.008 14.5352 48.0131 13.0309 48.32 12.6541C48.6833 12.2081 51.1069 7.70478 51.053 7.23807C51.0287 7.02941 51.0095 6.95219 51.186 6.7943C51.4172 6.58743 51.911 6.28243 52.1755 6.08223ZM46.5639 5.87349C46.5639 6.08116 46.5937 6.11892 46.3964 6.25806C46.2295 6.37579 46.0134 6.46084 45.8513 6.58812C45.4882 6.8735 45.1695 7.18274 44.9109 7.5103C44.4084 8.14703 44.0756 8.90042 43.9098 9.60276C43.7268 10.378 43.8333 11.1732 43.7526 11.9534C43.7226 12.2433 43.6431 12.5858 43.3368 12.8192C43.0629 13.028 42.5643 13.181 42.1875 13.3004C41.3251 13.5736 40.5982 13.9346 39.9409 14.3873C39.7806 14.4976 39.7365 14.7491 39.5544 14.8406C39.3705 14.9331 38.8112 15.2072 38.5959 15.2676C38.0954 15.408 36.1456 15.2752 35.6163 15.2171C35.0887 15.1592 34.338 14.8828 33.8723 14.7375C33.2115 14.5314 32.3771 14.0944 31.3691 13.4264C34.2236 12.7413 37.5171 12.0952 40.0661 10.9982C40.0806 11.1288 40.4431 11.4899 40.4803 11.3822C40.7186 10.6938 40.8784 9.99627 41.1136 9.30813C41.1761 9.12539 41.2383 8.94205 41.3511 8.76951C41.4075 8.68309 40.7466 8.61674 40.4803 8.68294C39.4884 8.92968 38.459 9.05012 37.4145 9.19481C35.4897 9.46135 33.3014 9.56358 31.6378 10.292C30.928 10.6028 30.2213 10.9996 29.6455 11.3918C29.0063 11.8273 28.4122 12.5453 28.3248 13.1515C27.1693 12.8245 25.659 12.9657 24.4677 13.0334C24.9 12.3497 26.3085 11.6755 27.1773 11.2096C27.8949 10.8246 28.5968 10.4258 29.3884 10.0987C31.1549 9.36885 32.936 8.6779 34.9735 8.26464C35.9819 8.06013 36.989 7.85359 38.0387 7.74755C38.6111 7.6897 39.192 7.67198 39.7674 7.6356C40.3288 7.60005 40.5426 7.52467 40.9577 7.27662C41.7332 6.81332 42.7991 6.71002 43.7982 6.54374C44.7803 6.38033 45.724 6.24136 46.5639 5.87349Z" fill="#49E9B9"/>
<path fill-rule="evenodd" clip-rule="evenodd" d="M29.176 3.63408L30.4871 4.05131C29.9565 4.18653 29.5446 4.27836 29.2514 4.3268C28.8117 4.39946 28.2083 5.46332 27.6424 5.46332C27.0765 5.46332 27.0721 4.5351 27.3519 4.1553C27.5385 3.90209 28.1465 3.72836 29.176 3.63408Z" fill="#FF819B"/>
<path fill-rule="evenodd" clip-rule="evenodd" d="M24.4502 16.9925C24.5326 17.0102 24.5629 16.9767 24.5413 16.892C24.4589 16.8689 24.4285 16.9024 24.4502 16.9925ZM53.0329 4.09814C52.9024 4.10564 52.9762 4.18663 53.0536 4.2169C53.0467 4.17733 53.0398 4.13776 53.0329 4.09814ZM45.4271 16.0026C45.5048 15.9652 45.4771 15.9335 45.344 15.9078C45.2684 15.9464 45.2961 15.9781 45.4271 16.0026ZM15.9457 15.7993C15.5228 15.7566 15.1952 15.354 14.8464 15.4387C14.41 15.5449 14.0104 16.0238 13.7122 16.2395C13.9421 16.3556 14.1965 16.4598 14.44 16.5644C14.6911 16.6722 14.6266 16.7104 14.8797 16.5822C15.064 16.489 15.2116 16.3211 15.3645 16.2065C15.548 16.0688 15.7812 15.9464 15.9457 15.7993ZM25.6915 31.0529C25.7664 31.0569 25.8172 29.9955 25.8779 29.8494C26.0128 29.5252 26.248 29.1988 26.5083 28.9073C26.6195 28.7828 26.818 28.6223 26.9024 28.4946C27.0323 28.2978 26.8221 28.1635 26.7628 27.9376C26.6365 27.4559 26.804 27.0303 27.0725 26.5836C26.578 26.513 26.1011 26.3968 25.5982 26.3483C25.5982 26.7745 25.5311 27.1317 25.2515 27.5226C25.1814 27.6206 25.0404 27.7001 25.1008 27.8199C25.1204 27.8589 25.2931 27.8842 25.3346 27.9202C25.5676 28.1222 25.6051 28.2828 25.6177 28.5348C25.6597 29.3813 25.5124 30.2123 25.6915 31.0529ZM22.1894 16.41C22.4627 16.5551 23.3352 15.5309 23.6353 15.5368C24.2733 15.5492 23.367 16.5561 23.3115 16.6793C23.5666 16.6222 23.808 16.2593 23.9444 16.1186C24.0615 15.998 24.4915 15.4061 24.7372 15.3696C25.2163 15.2983 25.0038 15.8457 24.9367 15.974C24.786 16.2628 24.6385 16.5485 24.5069 16.8411C24.7868 16.7452 24.9945 16.1707 25.1201 15.9831C25.2937 15.7236 25.4328 15.4392 25.7035 15.2123C25.8884 15.0575 26.1924 14.8392 26.526 14.8282C26.9314 14.815 27.0839 15.0864 27.4492 15.1372C27.498 14.5587 27.4074 13.9773 27.515 13.4005C26.7939 13.41 26.0689 13.4309 25.3569 13.5081C24.9559 13.5516 24.6897 13.5498 24.4922 13.7854C24.3392 13.968 24.2196 14.1588 24.075 14.3441C23.5192 15.0563 22.925 15.7635 22.1894 16.41ZM13.0663 14.251C12.5398 14.5904 12.0637 14.9414 11.5677 15.2974C11.0704 15.6543 10.3787 15.8833 9.90897 16.2518C9.47972 16.5886 9.15748 16.9763 8.74821 17.3241C8.29519 17.7091 7.9203 18.1403 7.53452 18.5534C7.93214 18.5991 8.03014 18.6042 8.28771 18.4187C8.50096 18.265 8.67548 18.0801 8.89072 17.9253C9.39109 17.565 9.87346 17.2717 10.4987 16.9895C11.1099 16.7137 11.8971 16.4723 12.628 16.332C12.913 16.2773 13.0178 16.2911 13.1756 16.1273C13.2889 16.01 13.3302 15.8631 13.445 15.7429C13.6931 15.4835 14.0851 15.3379 14.4746 15.1734C14.0344 14.8477 13.5068 14.5817 13.0663 14.251ZM48.2276 4.36813C48.0832 4.436 48.0639 4.69093 47.9975 4.79682C47.8757 4.99131 47.703 5.17383 47.5516 5.35957C47.286 5.68564 47.0654 6.05068 47.0751 6.42472C47.085 6.80919 47.5596 7.02997 48.1297 7.09969C48.7563 7.17632 49.2372 7.02157 49.7878 6.85609C50.3343 6.6918 50.7852 6.43223 51.2199 6.1701C51.5638 5.96267 51.7831 5.6248 52.1731 5.50843C52.5432 5.39789 52.9977 5.30016 53.1091 4.97219C53.1852 4.74813 53.0403 4.77441 52.7275 4.8222C52.3946 4.87297 52.1536 5.00734 51.8448 5.07951C52.0167 4.8334 52.058 4.6314 51.8464 4.39024C51.7245 4.25134 51.4959 4.0215 51.2189 4.01596C51.0364 4.01233 50.8184 4.13764 50.6502 4.17798C50.4442 4.22726 50.2161 4.24997 50.0042 4.28667C49.3761 4.39566 48.8727 4.41658 48.2276 4.36813ZM49.4652 19.8689C49.6759 19.8909 50.3545 18.3819 50.4476 18.1677C50.7041 17.5781 50.9408 16.937 50.8697 16.322C50.7948 15.6734 50.4762 15.1038 50.1496 14.4944C49.8739 13.9802 49.7535 13.4035 49.6532 12.8634C49.5382 12.2431 49.9371 11.6859 50.2266 11.1036C50.3603 10.8347 50.4307 10.5594 50.5482 10.2889C50.6718 10.0042 50.89 9.74609 51.0007 9.455C51.2057 8.91512 51.4324 8.3846 51.623 7.84139C51.8043 7.32464 52.2997 6.70956 52.1464 6.18476C51.8885 6.38069 51.5768 6.55153 51.3219 6.744C51.0621 6.94041 51.1524 6.95578 51.1839 7.22804C51.2358 7.67764 51.0853 8.19988 50.9186 8.63666C50.571 9.5473 49.9565 10.3743 49.508 11.2578C49.2775 11.712 49.1858 12.2242 48.8597 12.653C48.5674 13.0374 48.1629 13.3791 47.8528 13.7506C47.5129 14.1578 47.115 14.5422 46.7433 14.9382C46.5673 15.1258 46.3842 15.3095 46.2279 15.5041C46.0963 15.6682 45.9504 16.0636 45.6926 16.1272C46.6002 16.6726 47.2951 17.2312 47.9206 17.916C48.465 18.5121 49.3071 19.1812 49.4652 19.8689ZM51.3538 10.6622C52.2105 10.9922 52.6397 11.4769 53.1655 11.9971C53.69 12.5161 54.1811 13.0474 54.648 13.5877C55.5767 14.6624 56.26 15.7298 56.7733 16.9117C57.0047 17.4447 57.3416 17.9622 57.5822 18.4841C57.8044 18.9663 57.8767 19.4569 58.1964 19.919C58.2848 20.0466 58.3531 20.3287 58.5872 20.3738C58.8632 20.4269 59.6036 20.189 59.8827 20.1452C60.7891 20.0032 61.7343 19.9745 62.6637 20.0398C62.7181 19.8387 62.3506 19.442 62.236 19.246C62.0467 18.9221 61.8765 18.5767 61.6228 18.2705C61.1856 17.7432 60.6802 17.2303 60.1744 16.7334C59.6385 16.2069 59.1978 15.6421 58.6498 15.1287C58.3969 14.8918 58.0354 14.5721 57.8691 14.3086C57.7869 14.1785 57.7612 14.1283 57.6621 14.0178C57.5756 13.9214 57.4746 13.8263 57.3832 13.7309C56.2311 12.5284 55.38 11.3079 54.6393 9.99714C54.2338 9.27963 53.8949 8.55741 53.574 7.82304C53.2724 7.13294 53.2153 6.42127 52.8802 5.73349C52.6832 5.81644 52.3526 5.80482 52.3587 5.96923C52.3598 6.00152 52.6362 6.23172 52.6665 6.27647C52.7277 6.36722 52.7653 6.4631 52.7932 6.55981C52.9293 7.02973 52.6561 7.48564 52.5597 7.94716C52.4663 8.39384 52.3822 8.75954 52.1397 9.17862C51.8772 9.63239 51.4474 10.1865 51.3538 10.6622ZM31.6259 13.4391C32.4633 13.8963 33.239 14.4096 34.2302 14.7185C34.6957 14.8636 35.0658 15.0692 35.5935 15.127C36.1231 15.1851 36.6695 15.1522 37.201 15.1285C37.7443 15.1043 38.236 15.1003 38.7365 14.96C38.9518 14.8997 39.2792 14.8413 39.4631 14.749C39.6452 14.6575 39.7599 14.5093 39.9202 14.399C40.5775 13.9468 41.3046 13.586 42.1667 13.3131C43.1278 13.0089 43.6596 12.6634 43.7318 11.9673C43.8124 11.1878 43.706 10.3933 43.8889 9.61875C44.055 8.91596 44.387 8.16478 44.8901 7.52813C45.1487 7.20087 45.4673 6.8919 45.8305 6.60677C45.9925 6.47961 46.2086 6.39457 46.3755 6.277C46.5728 6.13798 46.543 6.10026 46.543 5.89277C45.7031 6.26026 44.7595 6.39916 43.7774 6.56243C42.7815 6.72803 41.7097 6.83338 40.937 7.29466C40.5219 7.54249 40.3081 7.61781 39.7467 7.65327C39.1713 7.68968 38.5904 7.70737 38.0181 7.76512C36.968 7.87118 35.9616 8.07742 34.953 8.28175C32.9156 8.6947 31.1345 9.38504 29.3681 10.1142C28.576 10.4412 27.8751 10.8392 27.157 11.2241C26.2883 11.6896 25.1203 12.3134 24.688 12.9964C25.8783 12.9289 27.0869 12.713 28.2421 13.0397C28.3298 12.4325 28.9855 11.8417 29.6252 11.4062C30.1925 11.0201 30.8861 10.6342 31.5802 10.3236C33.2413 9.58019 35.4564 9.38754 37.39 9.12005C38.4352 8.97543 39.4095 8.86262 40.4021 8.61599C40.6535 8.55354 41.3867 8.27406 41.5252 8.44056C41.6136 8.54698 41.3868 8.69983 41.3303 8.78623C41.2327 8.93538 41.1771 9.09049 41.1205 9.24811C40.8654 9.95912 40.7065 10.6837 40.4596 11.3966C40.4233 11.5016 40.3749 11.9764 40.0745 11.9118C39.8742 11.8689 40.0599 11.1439 40.0454 11.0129C37.4962 12.1093 34.4807 12.7545 31.6259 13.4391ZM34.4912 25.678C33.9248 25.6933 33.3478 25.8848 32.7986 25.9718C32.0583 26.0894 31.2813 26.2089 30.596 26.4195C30.2312 26.5317 30.2278 26.5972 30.3276 26.8528C30.4061 27.0537 30.4967 27.2482 30.5627 27.4526C30.7265 27.9601 30.9096 28.4612 31.1135 28.9627C33.2235 27.8569 35.9169 27.2315 38.549 26.8054C38.9213 26.7451 39.3006 26.7266 39.6782 26.6854C40.0089 26.6493 40.3856 26.675 40.6991 26.6342C40.9005 26.6079 41.0826 26.5227 41.2885 26.4927C41.7338 26.4279 42.2646 26.4227 42.6931 26.3232C43.2666 26.1901 43.9081 26.014 44.4755 25.8326C45.0949 25.6345 45.5933 25.4897 45.7194 25.0635C45.8194 24.7255 46.0702 24.4098 46.1482 24.078C46.2497 23.6454 46.1236 23.261 46.0812 22.8285C45.9829 21.8277 45.7511 20.8162 45.3459 19.84C44.9574 18.9041 44.6801 17.946 44.4123 16.9972C44.3601 16.8123 44.2559 16.642 44.1876 16.4602C44.0738 16.1579 43.8476 16.2354 43.4105 16.2532C42.5932 16.2863 41.7288 16.0816 41.05 15.8051C40.7295 15.6747 40.3244 15.3764 39.9578 15.3123C39.6313 15.2551 39.2981 15.5321 38.9864 15.625C38.2416 15.8467 37.3284 15.9067 36.5155 15.9417C34.7423 16.0179 33.3985 15.2932 32.1902 14.5559C31.379 15.1256 30.5001 15.6673 29.5582 16.1513C28.7821 16.5502 28.1225 17.0682 27.4765 17.5431C26.8696 17.9894 26.3788 18.6836 25.5546 18.9963C25.074 19.1787 24.7157 19.0632 24.2516 18.8799C23.8832 18.7342 23.4771 18.6549 23.1062 18.5205C21.3939 17.8999 19.7769 17.1991 18.104 16.5412C17.7381 16.3973 17.163 16.0589 16.7324 16.0346C16.4134 16.0165 16.4386 16.0666 16.254 16.2325C16.0752 16.3932 15.894 16.5529 15.7165 16.7142C15.0209 17.3465 14.2795 17.9993 13.7158 18.6822C14.943 18.4984 16.1033 18.4701 17.311 18.5787C18.422 18.6786 19.8405 18.7992 20.8241 19.1764C21.2442 19.3375 21.6568 19.5185 22.0759 19.7017C22.6019 19.9316 23.0104 20.253 23.5928 20.4264C24.0951 20.576 24.6386 20.6436 25.1607 20.7551C25.7473 20.8802 26.5795 21.1134 27.2025 21.0121C27.7333 20.9257 28.1778 20.6301 28.5774 20.4264C29.0974 20.1615 29.7292 19.9802 30.2553 19.7332C31.1877 19.2956 32.161 18.9216 33.1638 18.5304C34.3612 18.0633 35.51 17.5264 36.7528 17.1151C36.9972 17.0342 37.2389 16.9782 37.4663 16.8815C37.6801 16.7906 37.8341 16.6244 38.0914 16.7429C38.3202 16.8481 38.2203 17.0421 38.1511 17.1771C38.0862 17.3037 38.0262 17.3442 38.068 17.4546C38.1069 17.5574 38.3587 17.7151 38.4452 17.8156C38.8537 18.29 39.1454 18.7994 39.5368 19.2792C39.9177 19.7459 40.3474 20.1949 40.7015 20.6704C41.4006 21.609 42.3767 22.4407 42.9957 23.4095C42.7106 23.4828 42.6751 23.3318 42.454 23.3175C42.2122 23.3018 42.2997 23.3307 42.0596 23.4394C41.7378 23.5853 41.3925 23.6774 41.0471 23.7912C40.2781 24.0444 39.4906 24.3424 38.6607 24.5175C37.2353 24.8181 35.9216 25.3495 34.4912 25.678ZM59.0183 21.2958C58.969 21.518 58.9057 21.7384 58.8542 21.9601C58.8178 22.1169 58.6781 22.344 58.7099 22.4991C59.0771 22.3902 59.4723 22.0252 59.7558 22.4245C59.9247 22.6623 59.713 23.1343 59.6631 23.3903C60.0781 23.3374 59.9844 22.6971 60.6475 22.9038C61.1574 23.0627 60.8006 23.8701 61.1993 23.9487C61.4747 23.676 61.4293 23.0573 61.5194 22.7327C61.5617 22.5805 61.5012 22.3761 61.7848 22.3662C62.0304 22.3576 62.2248 22.5812 62.3411 22.6834C62.4518 22.3124 62.7506 21.9831 62.6202 21.6415C62.5396 21.4303 62.457 21.2188 62.3707 21.0083C62.32 20.8844 62.266 20.5041 62.0944 20.419C61.7752 20.2605 60.6088 20.5427 60.256 20.6063C59.9343 20.6644 59.524 20.7195 59.2279 20.8174C58.9169 20.9203 59.0122 21.0685 59.0183 21.2958ZM48.6823 8.5266C49.16 8.49377 49.574 8.31196 49.9405 8.12241C50.5413 7.81177 50.6325 7.56847 50.7467 7.08986C49.9762 7.32571 49.407 7.5208 48.5378 7.53063C47.5426 7.5419 47.0534 7.17542 46.5959 6.67118C46.4731 6.78869 46.2979 6.91335 46.2083 7.04212C46.0951 7.2048 46.1094 7.17102 46.1423 7.33614C46.1929 7.59106 46.3951 7.91772 46.6006 8.14142C47.0441 8.62439 47.9162 8.68976 48.6823 8.5266ZM29.013 27.9302H29.9165C29.8647 27.7223 29.8129 27.5145 29.7611 27.3066C29.7159 27.1251 29.7909 26.8699 29.507 26.8383C29.2719 26.8122 29.0386 26.9758 28.7994 26.9611C28.5264 26.9445 28.3694 26.8215 28.0529 26.8709C27.6024 26.9415 27.6925 27.2513 27.6858 27.5113C27.6832 27.6134 27.6206 27.767 27.6715 27.8662C27.76 28.0395 27.6861 27.9703 27.9602 27.9872C28.2821 28.007 28.6815 27.9415 29.013 27.9302ZM51.4106 2.89134C51.7416 2.92441 52.5988 3.3668 52.8407 3.26127C53.1692 3.11808 52.2249 2.72247 52.0314 2.6602C51.0858 2.35582 49.3171 2.59632 48.6814 3.15204C49.0981 3.17749 49.607 2.93782 50.0344 2.89843C50.4922 2.85624 50.9506 2.89206 51.4106 2.89134ZM51.1799 14.3403C51.4494 15.0222 51.9333 15.7529 51.9304 16.4619C51.9273 17.1988 51.6682 17.8675 51.1934 18.5422C50.956 18.8798 50.7433 19.221 50.4734 19.5492C50.3485 19.7012 50.2335 19.8874 50.0607 20.02C49.8476 20.1835 49.7815 20.1714 49.528 20.0416C49.4147 20.2235 49.2959 20.4111 48.9108 20.2888C48.6334 20.2007 48.6394 19.9823 48.5485 19.8199C48.3052 19.3848 47.785 19.0095 47.4178 18.613C47.0412 18.2066 46.7234 17.7694 46.3068 17.3787C46.1062 17.1905 45.8672 17.0153 45.653 16.8327C45.4905 16.6943 45.2425 16.3741 45.0168 16.2929C44.987 16.4754 45.2969 16.7412 45.4114 16.9194C45.5617 17.1535 45.6908 17.3941 45.7992 17.637C46.01 18.1089 46.1373 18.602 46.2978 19.0816C46.5846 19.9391 46.9229 20.791 47.1149 21.6613C47.2935 22.471 47.341 23.3076 47.2053 24.1208C47.1471 24.4701 46.821 24.7655 46.6012 25.0837C46.3024 25.5162 45.9393 25.7858 45.3392 26.0926C44.2493 26.6497 43.0426 26.9831 41.7152 27.2318C41.4675 27.2782 41.2374 27.258 41.0051 27.2895C40.7444 27.3247 40.5371 27.4081 40.2537 27.4359C39.5225 27.5077 38.7787 27.5922 38.0727 27.7224C37.5163 27.8251 36.9667 27.932 36.4163 28.0386C35.9968 28.1199 35.4799 28.1955 35.0761 28.3152C34.0799 28.6108 33.1455 28.9575 32.2211 29.3249C31.9501 29.4327 31.7503 29.498 31.5504 29.6574C31.3342 29.8298 31.3655 29.9517 31.2476 30.1484C31.1376 30.332 30.9457 30.4354 30.6849 30.2828C30.4412 30.1401 30.5375 29.8392 30.5177 29.6627C30.4879 29.3965 30.2367 28.3788 29.9451 28.2937C29.7345 28.2323 29.1187 28.3644 28.8633 28.382C28.5323 28.4049 28.2341 28.4043 27.9045 28.3759C28.0135 28.6609 27.6156 29.0462 27.4485 29.2967C27.1635 29.7239 26.9418 30.1401 26.8236 30.5948C26.7432 30.9048 26.769 31.2161 26.6932 31.5297C26.615 31.8534 26.7335 32.361 26.0335 32.4096C24.9224 32.4867 24.639 31.0904 24.5127 30.6222C24.3144 29.8879 24.4713 29.1643 24.5882 28.4261C24.5978 28.3662 24.6462 28.1032 24.6031 28.0555C24.568 28.0166 24.2556 27.9495 24.2153 27.9315C23.8632 27.7743 24.0065 27.6907 24.1114 27.4565C24.3117 27.009 24.2536 26.4498 24.7349 26.0585C25.1031 25.7591 25.9297 25.941 26.4059 26.0218C26.7608 26.082 27.1115 26.1631 27.4563 26.2433C27.6948 26.2988 27.961 26.4648 28.1698 26.4915C28.5863 26.545 28.8932 26.2109 29.2039 26.0926C29.7644 25.8792 30.349 25.683 30.953 25.5399C32.0627 25.2769 33.2112 25.126 34.3497 24.9047C35.0467 24.7692 35.7351 24.6211 36.3973 24.4254C36.8866 24.2808 37.3801 24.0773 37.9094 23.9793C38.5761 23.8559 39.2528 23.6843 39.9037 23.5138C40.5959 23.3325 41.3532 23.2162 42.0637 23.0692C40.5847 21.7093 39.3208 20.2546 38.305 18.7351C38.1879 18.5599 38.0754 18.3837 37.9717 18.2051C37.9189 18.1143 37.7891 17.7069 37.6516 17.6494C37.4017 17.545 36.3973 18.0181 36.1176 18.1333C35.1037 18.5505 34.1314 19.0064 33.0752 19.3856C32.1604 19.7139 31.2975 20.0948 30.4227 20.4469C29.941 20.6409 29.4929 20.8882 29.0031 21.0841C28.5145 21.2793 27.9396 21.6431 27.3609 21.7274C27.145 21.759 26.7791 21.7205 26.5608 21.7093C26.2531 21.6937 25.9097 21.6763 25.6105 21.6226C25.0238 21.5174 24.404 21.3979 23.8307 21.2669C22.8001 21.0316 22.0014 20.4509 21.0723 20.0923C19.9526 19.6602 18.6842 19.5525 17.4327 19.3136C16.0634 19.0523 14.5447 19.0238 13.0995 19.0917C13.0995 18.2635 13.736 17.6423 14.4306 16.9625C13.9303 16.7562 13.7193 16.6277 13.1593 16.8186C12.7439 16.9602 12.361 17.0875 11.9757 17.2458C11.5571 17.4177 11.1117 17.5497 10.6948 17.7383C10.2418 17.9432 9.84552 18.1606 9.42717 18.3901C9.11259 18.5626 8.75427 18.7194 8.42521 18.8753C8.10022 19.0294 7.76926 19.0071 7.35365 18.9021C7.23112 18.8711 6.84836 18.763 6.78359 18.7109C6.65301 18.6059 6.7496 18.5327 6.85802 18.3943C7.10887 18.0739 7.42931 17.7487 7.75667 17.4558C8.04889 17.1943 8.42814 16.976 8.7341 16.721C9.02462 16.4792 9.23228 16.1982 9.56883 15.979C9.94514 15.7337 10.3914 15.5369 10.7467 15.2756C10.9239 15.1453 11.1258 15.0063 11.1398 14.8525C11.1506 14.7345 10.9414 14.6202 10.9394 14.5355C10.935 14.3368 11.4771 14.1347 11.7034 13.9885C12.0357 13.7738 12.3639 13.5883 12.8771 13.6804C13.2539 13.748 13.8208 14.0463 14.1015 14.2196C14.4547 14.4378 14.7475 14.6904 15.1118 14.9062C15.3167 15.0276 15.535 15.1384 15.7467 15.2548C15.8718 15.3236 16.0702 15.5208 16.2087 15.5611C16.3324 15.5971 16.4533 15.563 16.6263 15.5601C16.5483 15.5614 16.9428 15.6031 16.9218 15.5995C17.1085 15.6309 17.2928 15.6649 17.4768 15.7023C18.2332 15.8558 18.9301 16.1148 19.6125 16.3727C21.346 17.0277 22.9727 17.7257 24.6704 18.4238C25.1733 18.6306 25.3116 18.6159 25.6977 18.3199C26.058 18.0438 26.3567 17.7369 26.6952 17.4506C27.2529 16.9789 27.8818 16.5202 28.5403 16.101C29.2182 15.6696 29.9996 15.3085 30.7241 14.9093C30.9253 14.7985 31.7546 14.4242 31.7022 14.2839C31.6727 14.2047 31.4046 14.0709 31.3196 13.9898C31.1929 13.8688 31.0616 13.7323 30.9681 13.5989C30.4178 12.8134 31.8461 12.7596 32.6819 12.5168C33.7022 12.2204 34.7123 11.893 35.7552 11.6284C36.2789 11.4956 36.8032 11.3742 37.3319 11.2511C37.8185 11.1377 38.2617 10.9538 38.7406 10.8287C39.0934 10.7365 39.8597 10.7014 40.0948 10.5053C40.2336 10.3896 40.1738 10.0243 40.1982 9.88952C40.2384 9.66588 40.2978 9.4435 40.3909 9.226C40.216 9.20621 39.8878 9.32682 39.7289 9.37318C39.4227 9.46245 39.1561 9.55034 38.8165 9.60647C38.0897 9.72648 37.3287 9.74019 36.6127 9.87045C35.5228 10.0688 34.3607 10.1836 33.2948 10.4682C32.0674 10.7959 31.0106 11.3723 30.1484 11.9945C29.7033 12.3156 29.3494 12.6244 29.0458 13.0055C28.9671 13.1043 28.8738 13.4351 28.7529 13.504C28.5989 13.5917 28.1925 13.4994 28.0175 13.4813C28.0175 13.7732 28.0271 14.0656 28.0105 14.3571C27.9928 14.6647 28.0811 15.1367 27.9116 15.4205C27.7526 15.6869 27.4558 15.6318 27.1414 15.4993C26.7236 15.3233 26.5093 15.2222 26.1348 15.495C25.4833 15.9696 25.2368 16.7067 24.7899 17.2621C24.6435 17.444 24.2827 17.8249 24.0853 17.451C23.9416 17.1785 24.18 16.8309 24.0686 16.5617C23.9163 16.7297 23.461 17.2294 23.1008 17.228C22.6052 17.2261 22.7669 16.7427 22.7834 16.5457C22.4911 16.7416 21.6334 17.3818 21.4258 16.8686C21.2664 16.4747 21.7115 16.0838 22.0276 15.7737C22.3954 15.4129 22.7569 15.0465 23.1386 14.6918C23.512 14.3447 23.762 13.9514 24.1406 13.6021C23.852 13.6272 23.2934 13.568 23.4708 13.2874C23.5637 13.1407 23.8574 13.2024 24.0008 13.1113C24.1501 13.0164 24.2305 12.7471 24.3141 12.6228C24.7258 12.0103 25.3163 11.5067 25.9992 11.0087C27.2058 10.1285 28.7462 9.42586 30.2994 8.83641C32.15 8.13415 34.0578 7.70708 36.13 7.36379C37.112 7.20117 38.1078 7.12638 39.1004 7.00923C39.5124 6.96061 39.9304 6.9332 40.2564 6.76921C40.7425 6.52465 41.063 6.34362 41.6489 6.18756C42.1223 6.06147 42.5717 6.00331 43.0881 5.94944C43.6415 5.89164 44.2766 5.96851 44.8084 5.87037C45.2504 5.78873 45.7655 5.61151 46.1669 5.46969C46.3692 5.39831 46.7272 5.35808 46.8363 5.29736C47.0471 5.18021 47.1866 4.88811 47.3211 4.73079C46.9882 4.78555 46.8614 4.637 46.7723 4.45704C46.6241 4.15778 46.6226 4.25724 46.16 4.13192C45.886 4.05767 45.7974 3.85954 45.5803 3.78923C45.3474 3.71373 44.978 3.87652 44.703 3.82361C44.48 3.78065 44.262 3.63012 44.2743 3.46989C44.2793 3.40303 44.3915 3.34368 44.3935 3.28922C44.3983 3.16158 44.2323 3.09108 44.2565 2.95117C44.2941 2.73462 44.4692 2.77121 44.3206 2.53655C44.1725 2.30296 44.2302 2.2569 44.2747 2.01479C44.2871 1.94787 44.2323 1.84007 44.3067 1.78317C44.3501 1.74992 44.5089 1.74479 44.5251 1.72799C44.5857 1.66524 44.5876 1.6137 44.5998 1.49863C44.6068 1.43308 44.5745 1.30199 44.6831 1.25348C44.7775 1.21135 44.9113 1.28965 44.9938 1.26486C45.0655 1.24335 45.1275 1.13615 45.2452 1.12322C45.6801 1.07543 45.5474 1.35329 45.7695 1.00649C45.8981 0.805611 45.9968 0.723378 46.2276 0.609146C46.3279 0.638226 46.3904 0.626487 46.4153 0.57381C46.449 0.535733 46.4829 0.497715 46.5167 0.459697C46.6966 0.432942 46.7225 0.517618 46.8618 0.434432C47.0956 0.294815 46.855 -0.0143917 47.3273 0.0683773C47.6699 0.128383 47.7531 0.40428 48.1114 0.470543C48.1609 0.380683 48.1544 0.118015 48.3626 0.0914382C48.5744 0.0643848 48.7357 0.306912 48.8127 0.386105C48.8628 0.317995 48.9458 0.114022 49.0284 0.0641464C49.2656 -0.0791648 49.1938 0.0596772 49.4037 0.0787457C49.4367 0.102998 49.4697 0.127311 49.5027 0.151623C49.6125 0.117955 49.7206 0.0824402 49.827 0.0448396C50.0572 0.0174883 49.9752 0.0324452 50.176 0.0834533C50.3365 0.124272 50.2404 0.17093 50.4355 0.196612C50.5772 0.215145 50.6971 0.122782 50.8547 0.151087C50.9006 0.16366 50.9466 0.176293 50.9924 0.188866C51.0574 0.279381 51.1571 0.295411 51.2915 0.236895C51.4501 0.277951 51.664 0.442953 51.8327 0.43753C52.1553 0.426983 52.0794 0.148048 52.4332 0.161693C52.5643 0.166699 52.9034 0.38825 52.997 0.454037C53.1281 0.54634 53.091 0.62607 53.2553 0.729873C53.4934 0.880216 53.3537 0.799592 53.581 0.867643C53.9197 0.969123 54.0445 0.930748 54.184 1.175C54.3054 1.38744 54.3734 1.65171 54.3747 1.87678C54.3754 2.01723 54.2147 2.32697 54.525 2.25904C54.7428 2.21137 54.7062 1.87225 54.9399 1.97862C55.1177 2.05942 54.767 2.4915 54.7629 2.59286C54.7512 2.88449 54.8253 2.90785 54.5376 3.12576C54.4012 3.22897 54.0887 3.41918 54.0195 3.5529C53.9376 3.71105 54.155 3.98498 54.2052 4.12626C54.3139 4.43291 54.222 4.49768 53.8996 4.73866C53.865 4.75165 53.8305 4.7647 53.7958 4.77769C53.6237 4.77745 53.5758 4.83138 53.6525 4.93935C53.5839 5.05978 53.5921 5.17586 53.4952 5.29688C53.4421 5.36303 53.208 5.49692 53.196 5.56235C53.1749 5.67903 53.2671 5.69947 53.4235 5.82043C54.054 6.30811 54.3427 6.94005 54.6546 7.52664C55.2039 8.55985 55.881 9.56762 56.5367 10.5788C56.7923 10.973 57.0513 11.3516 57.3165 11.7502C57.6466 12.2464 58.1106 12.6994 58.503 13.1803C58.7742 13.5127 59.051 13.8776 59.3899 14.1644C59.8163 14.5252 60.0558 14.9889 60.4298 15.3794C60.8292 15.7966 61.2956 16.2076 61.6808 16.6369C62.0492 17.0475 62.5044 17.4233 62.8541 17.8449C63.2908 18.3714 63.7993 19.0039 63.9195 19.6005C63.962 19.812 64.0944 20.1607 63.8855 20.3416C63.6692 20.5289 63.0737 20.6072 62.7715 20.4674C63.0737 20.9092 63.2615 21.4043 63.3971 21.8768C63.4556 22.081 63.5373 22.2612 63.4657 22.4698C63.4016 22.6563 63.5078 22.5477 63.2682 22.6567C63.0674 22.748 63.1602 22.4907 63.0024 22.753C62.9692 22.8084 63.0344 22.9619 63.0321 23.0261C63.023 23.284 62.9924 23.5465 62.9764 23.8058C62.9643 24.0026 63.0148 24.1686 62.6299 24.1478C62.3214 24.1311 62.1687 23.9253 62.0317 23.7801C61.9803 24.0113 61.9509 24.2421 61.9083 24.474C61.8708 24.6797 61.9459 24.8829 61.5266 24.8607C60.8391 24.8243 60.5681 24.0416 60.3938 23.7146C60.0806 23.9738 59.9283 24.4885 59.7905 24.8055C59.6594 25.1073 59.5064 25.7495 58.8361 25.3544C58.3895 25.0911 58.5625 24.5732 58.6426 24.2363C58.6691 24.1252 59.0461 23.1487 58.8698 23.0924C58.6177 23.2618 58.3242 23.5385 57.9091 23.3892C57.536 23.255 57.6574 22.9568 57.6872 22.7415C57.7716 22.1292 58.1062 21.5422 58.3542 20.9489C58.2131 20.929 57.87 20.9114 57.7537 20.8454C57.6048 20.7609 57.6966 20.7198 57.6312 20.6118C57.5428 20.4655 57.3839 20.3169 57.2584 20.1779C56.8496 19.7251 56.7237 19.2737 56.5124 18.781C56.3084 18.305 55.9242 17.8861 55.7204 17.4041C55.4944 16.8701 55.2538 16.3453 54.9873 15.8134C54.4053 14.6515 53.567 13.5452 52.6032 12.4913C52.4765 12.353 51.4397 10.8584 51.2836 10.9026C51.1722 10.9341 51.1084 11.3208 51.0659 11.4254C50.9674 11.6674 50.9481 11.9218 50.9249 12.1712C50.545 12.753 50.9494 13.7569 51.1799 14.3403Z" fill="black"/>
<path fill-rule="evenodd" clip-rule="evenodd" d="M16.1397 12.3707C16.5267 12.4287 16.6651 11.862 16.7085 11.6866C16.7786 11.4021 16.859 11.1575 17.1029 10.9088C17.2216 10.7878 17.3633 10.6634 17.5172 10.5591C17.607 10.4984 17.832 10.4193 17.879 10.3541C18.0089 10.174 17.8579 9.72105 17.8596 9.51835C17.8608 9.38815 17.7253 8.78241 17.9685 8.74015C18.2845 8.68514 18.3669 9.23759 18.4019 9.36196C18.4418 9.50436 18.4353 9.64164 18.4595 9.78255C18.4818 9.91405 18.5958 9.99549 18.6395 10.0831C18.7643 10.3336 18.4679 10.5439 18.2555 10.7695C18.019 11.0206 17.7631 11.2646 17.5972 11.5387C17.4171 11.8362 17.4287 12.1494 17.2879 12.4505C17.059 12.9399 16.099 13.2067 15.3215 13.0632C14.9081 12.9868 14.995 12.8113 14.8641 12.6092C14.8145 12.5324 14.6752 12.4898 14.6337 12.3879C14.5897 12.28 14.63 12.1396 14.6637 12.0306C14.8272 11.5032 15.0926 10.951 15.3489 10.4378C13.9537 10.9206 12.476 11.2386 10.8693 11.2205C10.0707 11.2114 9.48887 11.1038 8.91036 11.5324C8.46206 11.8646 8.46263 12.4489 8.27968 12.8619C8.0811 13.3104 7.90202 13.8848 7.44994 14.2601C6.90458 14.7129 6.15997 14.6384 6.10438 14.0345C6.05694 13.5197 6.46461 13.0317 6.39624 12.5091C6.36187 12.2462 6.197 12.0145 6.20713 11.7481C6.21584 11.5193 6.28734 11.3043 6.35476 11.079C5.55675 11.1398 4.93866 11.3458 4.37171 11.6914C3.84083 12.015 3.61943 12.4145 3.18108 12.7846C2.78107 13.1222 2.4271 13.5869 1.63751 13.5753C0.629645 13.5606 0.566198 12.7811 0.944135 12.3645C1.13732 12.1516 1.40569 11.9849 1.65124 11.7973C1.92312 11.5897 1.95522 11.4229 2.01128 11.1577C2.05389 10.9555 2.06564 10.6883 2.35531 10.555C2.61583 10.4349 2.94291 10.4933 3.18392 10.3342C3.41451 10.1821 3.59651 9.9518 3.80362 9.78362C4.06224 9.57365 4.32994 9.35672 4.55996 9.13383C5.05485 8.654 5.70523 8.32015 6.39075 7.94474C6.14217 7.84747 5.48677 7.95498 5.17891 7.9242C4.67313 7.87354 4.01858 7.72227 3.62672 7.50474C2.81327 7.05301 2.42236 6.46549 2.3823 5.78647C2.34376 5.1343 2.50664 4.34771 3.27814 3.86306C3.67132 3.616 4.17474 3.39978 4.67152 3.24226C5.0023 3.13743 5.68355 2.90877 6.06603 3.00318C6.94908 3.22137 4.95192 4.0891 4.68856 4.22793C3.84954 4.67025 3.36091 5.09716 3.38041 5.80469C3.39926 6.49264 4.45447 6.81971 5.33705 7.0473C5.79482 7.16535 6.34776 7.26007 6.85912 7.25143C7.43858 7.24173 7.83271 7.03265 8.36055 6.91002C9.39947 6.66868 10.4653 6.50639 11.5362 6.34381C12.5908 6.18361 13.7379 6.21981 14.8179 6.11521C15.8331 6.01686 16.7817 5.8956 17.7414 5.66366C18.7351 5.42351 19.5016 4.70722 20.5854 4.63185C21.2577 4.58518 20.9291 4.88409 20.6386 5.03739C20.2911 5.2208 19.9137 5.38059 19.566 5.5646C18.6802 6.03323 17.7523 6.30893 16.6296 6.48758C15.8141 6.6173 14.9348 6.73863 14.0681 6.81602C12.974 6.91377 11.8728 6.88323 10.798 7.06123C10.1616 7.1666 9.5436 7.30078 8.94322 7.472C8.69729 7.54213 8.18867 7.65446 8.14312 7.77918C8.08403 7.94063 8.28971 7.93742 8.0418 8.08613C7.62418 8.3367 7.081 8.51386 6.65922 8.77384C6.18942 9.06346 5.74255 9.34433 5.36196 9.68396C4.98449 10.0209 4.68307 10.3474 4.12407 10.5797C3.93875 10.6568 3.62417 10.7918 3.41356 10.8273C3.21971 10.8599 3.13117 10.8099 2.96526 10.8777C2.52397 11.0578 2.78837 11.6202 2.67189 11.8986C2.52293 12.2552 2.14149 12.5229 1.90399 12.8537C2.23628 12.8085 2.46829 12.4628 2.63912 12.2998C2.8306 12.1169 3.07312 11.9937 3.31678 11.8357C3.82909 11.5034 3.9647 11.049 4.5737 10.7362C5.67692 10.1696 7.39179 10.2184 8.31225 9.45887C8.46131 9.33582 8.60136 8.98018 8.78025 8.90279C9.1079 8.76104 9.08015 9.18461 9.04644 9.31034C8.93119 9.73957 8.50979 10.2468 7.95884 10.5178C7.7095 10.6405 7.36073 10.6966 7.14435 10.8558C7.09132 10.869 7.03848 10.8823 6.98545 10.8955C7.01708 10.9662 7.03431 11.0381 7.03687 11.1112C7.04189 11.2388 6.99264 11.3633 6.98441 11.492C6.96386 11.816 7.07797 12.093 7.18128 12.4034C7.25524 12.6251 7.05628 13.0873 7.2148 13.268C7.52806 12.6077 7.89644 11.845 8.4899 11.2582C8.63015 11.1193 8.90828 11.0047 9.0187 10.8618C9.07116 10.8252 9.12362 10.7885 9.17608 10.7519C9.08413 10.6984 9.00402 10.6387 8.93574 10.5729C8.57987 10.1031 9.35961 10.3936 9.67069 10.4335C10.1708 10.4976 10.794 10.3658 11.3133 10.356C11.8194 10.3463 12.3184 10.3357 12.8131 10.2864C13.3473 10.2331 13.9016 10.1527 14.4242 10.0647C14.9489 9.9762 15.4338 9.79428 15.9438 9.71432C15.434 9.49543 15.2726 9.21045 15.0962 8.85457C14.9803 8.62055 14.5684 8.05273 14.8276 7.81526C15.1086 7.55766 15.2089 7.95379 15.3 8.09411C15.4541 8.33134 15.6875 8.7361 15.9731 8.9141C16.1271 9.01006 16.335 8.99953 16.4726 9.12752C16.5737 9.2217 16.5875 9.35183 16.6033 9.46102C16.6502 9.78338 16.4472 10.0415 16.2663 10.3349C15.8442 11.0192 15.6736 11.751 15.1216 12.4021C15.4574 12.4222 15.8049 12.3919 16.1397 12.3707Z" fill="black"/>
<path fill-rule="evenodd" clip-rule="evenodd" d="M23.2023 6.97937C23.4717 6.93959 24.3196 6.88146 24.0736 6.57124C23.8247 6.25744 23.1622 6.76491 23.2023 6.97937ZM31.2281 4.50885C31.0699 4.478 30.8189 4.40612 30.6495 4.41374C30.4488 4.42279 30.2996 4.51415 30.0959 4.52624C29.6804 4.5509 29.359 4.43953 29.0875 4.71825C29.6652 4.71825 30.8209 4.84129 31.2281 4.50885ZM20.3282 11.0094C20.878 11.0576 21.1511 9.53231 21.1802 9.3325C20.9336 9.31666 20.2689 9.62087 20.2108 9.761C20.1472 9.91495 20.3665 10.1619 20.3931 10.3219C20.4326 10.5588 20.3907 10.7762 20.3282 11.0094ZM23.3921 2.30276C22.73 2.34326 21.9893 2.47785 21.3818 2.2466C20.8891 2.05918 20.7067 1.66373 20.2918 1.43159C20.2918 2.10111 21.2503 2.62864 22.2256 2.84108C22.7222 2.94923 23.4831 2.78611 23.9219 2.96239C24.0492 3.01349 24.3204 3.24629 24.3304 3.34247C24.3643 3.67026 23.9923 3.37689 23.7817 3.38702C23.4888 3.40107 23.0813 3.88585 22.8372 4.03325C22.6536 4.14414 22.4464 4.23412 22.239 4.32941C22.1707 4.36086 21.8194 4.47246 21.8019 4.52642C21.7864 4.5743 21.979 4.75029 22.0196 4.79567C22.2989 5.10821 22.6353 5.3322 23.0767 5.55267C23.2942 5.6613 23.5207 5.72181 23.7388 5.81203C23.8099 5.84157 24.0991 6.08902 24.0151 6.0786C24.1366 5.84675 24.4827 5.57822 24.713 5.37323C24.949 5.16306 25.2601 4.94289 25.6558 4.85778C25.8296 4.82038 26.1175 4.78828 26.2984 4.77911C26.4255 4.77631 26.5513 4.78286 26.6759 4.79877C26.8573 4.84903 26.9283 4.80859 26.8888 4.67727C27.0794 4.42869 26.9671 4.11573 27.2094 3.86322C27.4938 3.56675 27.959 3.43246 28.4919 3.46587C28.7315 3.48087 28.9895 3.54543 29.2266 3.51911C29.4616 3.49302 29.728 3.37391 29.958 3.32258C30.8513 3.12307 31.9537 2.88062 32.654 2.46499C32.7604 2.40198 33.0605 2.22712 33.0841 2.13654C33.0216 2.04816 32.9592 1.9599 32.8967 1.87158C32.8803 1.74211 32.7801 1.70679 32.5959 1.76569C32.379 1.76283 31.9676 1.91917 31.7505 1.96389C31.4749 2.02071 31.1976 2.07067 30.9265 2.13481C30.4557 2.24612 29.9975 2.36047 29.5033 2.42669C28.9916 2.49518 28.7479 2.53693 28.4787 2.23242C28.2153 1.93477 28.2527 1.76069 27.6397 1.80422C27.0933 1.84294 26.6354 1.97241 26.1317 2.10903C25.7972 2.19973 25.3614 2.36678 25.0212 2.40257C24.769 2.42913 24.4969 2.36744 24.254 2.33563C23.9472 2.29555 23.704 2.30258 23.3921 2.30276ZM29.7385 4.03146H30.0137C29.8004 3.95273 29.587 3.87394 29.3737 3.79521C29.0734 4.09965 28.3227 3.96726 27.8677 4.14866C27.494 4.29767 27.1432 4.93264 27.5019 5.1639C28.0006 5.48531 28.2461 4.77214 28.3877 4.60783C28.6758 4.27343 29.1097 4.023 29.7385 4.03146ZM21.0167 4.71307C20.7934 4.4484 20.9398 4.19541 21.2712 4.05498C21.7492 3.85244 22.2304 3.63054 22.6992 3.40613C21.9024 3.32764 21.3314 3.16214 20.6818 2.85692C19.9323 2.50471 19.719 2.17924 19.74 1.58435C19.7505 1.28574 19.684 0.437022 20.4514 0.683401C21.0854 0.88696 21.1728 1.45619 21.8549 1.64914C22.5287 1.83972 23.3224 1.64206 24.031 1.79047C24.2326 1.83275 24.7721 2.13017 24.936 2.1288C25.1537 2.12689 25.7005 1.82471 25.9063 1.75295C26.4228 1.57297 27.0908 1.39746 27.6662 1.34559C28.0275 1.31302 28.1452 1.28967 28.4071 1.45696C28.7003 1.64426 28.7922 1.87581 28.8969 2.11915C30.0094 1.83144 31.1332 1.56291 32.2771 1.32832C32.6404 1.25382 32.8899 1.15853 33.1998 1.03847C33.6436 0.866592 33.8905 0.946157 33.9712 1.30152C34.1133 1.92756 33.5042 2.32795 32.9749 2.79653C32.683 3.05494 32.4836 3.23747 32.0091 3.36945C31.5151 3.50678 30.9205 3.46253 30.384 3.56574C30.5217 3.67103 30.5944 3.91622 30.7156 3.99025C30.8143 4.0504 31.2861 4.04039 31.4452 4.09292C31.9221 4.25038 31.8654 4.5132 31.5699 4.7731C31.2366 5.06623 30.7437 5.12024 30.2052 5.14579C29.9641 5.15717 29.7492 5.15925 29.5079 5.14853C29.3518 5.14162 28.8083 5.03567 28.6907 5.06706C28.5513 5.10416 28.5189 5.2973 28.4555 5.3855C28.3546 5.52569 28.2424 5.66755 28.0052 5.73235C27.7998 5.78833 27.5683 5.7732 27.3816 5.69632C27.1313 5.59335 27.2 5.47179 27.0424 5.33958C27.0276 5.20034 26.9331 5.17396 26.7589 5.26032C26.6258 5.28956 26.493 5.3191 26.3603 5.34893C26.086 5.4117 25.8296 5.47227 25.5881 5.57774C25.1255 5.77969 24.8453 6.12041 24.3298 6.26239C24.6662 6.62353 24.4561 7.11486 23.89 7.30239C23.7624 7.34462 23.606 7.39655 23.4705 7.42395C23.3694 7.44437 23.1051 7.42782 23.0368 7.46325C22.938 7.51465 22.8836 8.00115 22.8144 8.10954C22.5764 8.48224 22.071 8.66769 21.7718 9.00572C21.48 9.3356 21.5426 9.84759 21.4577 10.2192C21.3525 10.6794 21.2857 11.1625 20.9719 11.5896C20.762 11.8753 20.1323 12.2141 19.5762 12.1577C18.7587 12.0749 19.1141 11.4189 19.3649 11.1362C19.7516 10.7001 19.7512 10.3702 19.6531 9.88785C19.3303 9.91799 18.5306 10.1163 18.5691 9.72997C18.5954 9.4665 19.501 9.22495 19.8184 9.09262C20.5359 8.79353 21.2701 8.44549 21.876 8.06226C22.1264 7.90384 22.4849 7.61131 22.6124 7.39464C22.7051 7.23653 22.6853 7.08276 22.7054 6.91743C22.724 6.76527 22.9365 6.55629 22.926 6.4233C22.9104 6.22606 22.0836 5.91089 21.8471 5.70203C21.5103 5.4045 21.2271 5.05265 21.0167 4.71307Z" fill="black"/>
<path fill-rule="evenodd" clip-rule="evenodd" d="M37.5787 5.37541C37.8322 5.35459 38.8062 5.18508 38.9735 5.34376C39.2786 5.63322 38.3816 5.68713 38.156 5.71337C37.1592 5.82915 36.184 5.98314 35.2173 6.15563C33.2944 6.4987 31.3339 6.92924 29.543 7.48811C29.2625 7.57564 28.4383 7.9318 28.1576 7.75187C27.7949 7.51947 28.6748 7.2616 28.8764 7.18919C29.7697 6.86819 30.7136 6.58027 31.6724 6.34388C33.5608 5.87836 35.5561 5.51547 37.5787 5.37541Z" fill="black"/>
<path fill-rule="evenodd" clip-rule="evenodd" d="M13.5443 20.6554C14.9747 20.5214 16.5288 20.7191 17.917 20.9919C18.3618 21.0793 18.8254 21.1808 19.2325 21.3232C19.4519 21.3999 19.9734 21.5364 20.0975 21.6798C20.3046 21.919 20.0729 22.0209 19.7396 21.9816C19.4228 21.9442 19.0336 21.8298 18.7029 21.7775C17.1887 21.5381 15.6836 21.3586 14.1499 21.2627C13.7831 21.2398 13.5166 21.2665 13.1629 21.307C12.8986 21.3372 12.2007 21.5177 12.002 21.4119C11.2839 21.0296 13.2024 20.6791 13.5443 20.6554Z" fill="black"/>
<path fill-rule="evenodd" clip-rule="evenodd" d="M35.8003 22.4949C35.8972 22.8358 35.6213 22.8676 35.1602 23.0268C34.6893 23.1896 34.2189 23.3232 33.7215 23.4546C33.1855 23.5961 32.6239 23.7412 32.0656 23.8445C31.5927 23.932 30.8635 24.1281 30.3724 24.099C30.1743 24.0873 30.0462 24.1035 30.0446 23.9494C30.0432 23.7821 30.2937 23.7921 30.5003 23.7551C31.1328 23.6421 31.7452 23.4723 32.3672 23.3377C33.5384 23.0842 34.7117 22.8702 35.8003 22.4949Z" fill="black"/>
<path fill-rule="evenodd" clip-rule="evenodd" d="M0.317941 5.82664C-0.0488947 5.44628 -0.041519 4.93923 0.0599854 4.50945C0.094189 4.36458 0.650665 3.29362 0.986893 3.51623C1.18631 3.64828 0.507489 4.48936 0.436409 4.68157C0.350669 4.9133 0.306601 5.14253 0.363116 5.37939C0.378512 5.44342 0.606873 5.84983 0.317941 5.82664Z" fill="black"/>
<path fill-rule="evenodd" clip-rule="evenodd" d="M19.5426 7.98562C19.2739 7.75486 19.6336 7.23851 19.7424 6.99321C19.8095 6.84203 20.0143 6.27421 20.3392 6.39541C20.6545 6.51305 20.3015 7.04527 20.2383 7.19224C20.1447 7.41026 20.0085 7.98013 19.5426 7.98562Z" fill="black"/>
<path fill-rule="evenodd" clip-rule="evenodd" d="M49.3434 20.2828C49.3927 20.209 49.4421 20.1352 49.4914 20.0614C49.6169 20.1213 49.792 20.1507 49.6644 20.2415C49.5858 20.2974 49.4537 20.2973 49.3434 20.2828Z" fill="#F4C03A"/>
<path fill-rule="evenodd" clip-rule="evenodd" d="M44.8111 5.88623C44.5911 5.9074 44.4443 5.90854 44.2263 5.90533C44.4213 5.89895 44.6162 5.89261 44.8111 5.88623Z" fill="#F4C03A"/>
<path fill-rule="evenodd" clip-rule="evenodd" d="M51.9392 16.6177C51.9387 16.5259 51.9381 16.434 51.9377 16.3422C51.9382 16.4342 51.9387 16.5259 51.9392 16.6177Z" fill="#F4C03A"/>
<path fill-rule="evenodd" clip-rule="evenodd" d="M16.5582 9.7304C16.5576 9.63848 16.5572 9.54663 16.5568 9.4549C16.5573 9.54682 16.5577 9.63861 16.5582 9.7304Z" fill="#F4C03A"/>
<path fill-rule="evenodd" clip-rule="evenodd" d="M23.3924 1.68391C23.2462 1.68331 23.0999 1.6828 22.9538 1.68221C23.1007 1.64488 23.2466 1.66283 23.3924 1.68391Z" fill="#F4C03A"/>
<path fill-rule="evenodd" clip-rule="evenodd" d="M24.3822 29.9791C24.3804 30.0404 24.3785 30.1017 24.3765 30.1628C24.3783 30.1015 24.3802 30.0403 24.3822 29.9791Z" fill="#F4C03A"/>
<path fill-rule="evenodd" clip-rule="evenodd" d="M5.92118 7.96186C5.99459 7.96237 6.06782 7.96283 6.14049 7.96342C6.06692 7.96297 5.99409 7.96242 5.92118 7.96186Z" fill="#F4C03A"/>
<path fill-rule="evenodd" clip-rule="evenodd" d="M47.1888 24.1938C47.1875 24.1324 47.1863 24.0711 47.185 24.0101C47.1862 24.0715 47.1874 24.1327 47.1888 24.1938Z" fill="#F4C03A"/>
<path fill-rule="evenodd" clip-rule="evenodd" d="M50.9082 12.1639C50.9128 12.1026 50.9175 12.0413 50.9221 11.9803C50.9175 12.0416 50.9128 12.1028 50.9082 12.1639Z" fill="#F4C03A"/>
<path fill-rule="evenodd" clip-rule="evenodd" d="M44.271 2.88899C44.2657 2.95026 44.2604 3.01159 44.2549 3.07265C44.2602 3.01132 44.2656 2.95021 44.271 2.88899Z" fill="#F4C03A"/>
<path fill-rule="evenodd" clip-rule="evenodd" d="M63.0485 23.0459C63.0495 22.9846 63.0504 22.9233 63.0514 22.8622C63.0503 22.9236 63.0495 22.9847 63.0485 23.0459Z" fill="#F4C03A"/>
<path fill-rule="evenodd" clip-rule="evenodd" d="M33.9598 1.87885C33.957 1.81752 33.9543 1.75619 33.9514 1.69519C33.9541 1.75659 33.957 1.81772 33.9598 1.87885Z" fill="#F4C03A"/>
<path fill-rule="evenodd" clip-rule="evenodd" d="M3.39298 5.82758C3.3972 5.76627 3.40135 5.70497 3.40558 5.64392C3.40128 5.70529 3.3972 5.76647 3.39298 5.82758Z" fill="#F4C03A"/>
<path fill-rule="evenodd" clip-rule="evenodd" d="M29.7522 5.1621C29.8256 5.16192 29.8989 5.16169 29.9715 5.16151C29.8979 5.16169 29.8251 5.16192 29.7522 5.1621Z" fill="#F4C03A"/>
<path fill-rule="evenodd" clip-rule="evenodd" d="M54.3582 2.0625C54.3533 2.00118 54.3484 1.93998 54.3436 1.87884C54.3485 1.94017 54.3534 2.0013 54.3582 2.0625Z" fill="#F4C03A"/>
<path fill-rule="evenodd" clip-rule="evenodd" d="M6.17696 11.567C6.17711 11.6283 6.17719 11.6897 6.17719 11.7507C6.17704 11.6893 6.17704 11.6282 6.17696 11.567Z" fill="#F4C03A"/>
<path fill-rule="evenodd" clip-rule="evenodd" d="M63.4977 22.2194C63.4916 22.1582 63.4856 22.0969 63.4796 22.0358C63.4856 22.0971 63.4917 22.1582 63.4977 22.2194Z" fill="#F4C03A"/>
<path fill-rule="evenodd" clip-rule="evenodd" d="M27.1206 21.7395C27.194 21.738 27.2673 21.7366 27.3399 21.7351C27.2663 21.7366 27.1935 21.7381 27.1206 21.7395Z" fill="#F4C03A"/>
<path fill-rule="evenodd" clip-rule="evenodd" d="M50.9239 13.4036C50.918 13.3423 50.9123 13.2811 50.9065 13.22C50.9123 13.2813 50.918 13.3425 50.9239 13.4036Z" fill="#F4C03A"/>
<path fill-rule="evenodd" clip-rule="evenodd" d="M15.863 20.6347C15.7655 20.6351 15.668 20.6356 15.5706 20.6359C15.6681 20.6356 15.7655 20.6351 15.863 20.6347Z" fill="#F4C03A"/>
<path fill-rule="evenodd" clip-rule="evenodd" d="M13.5238 20.6267C13.4263 20.6325 13.3288 20.6382 13.2314 20.644C13.3289 20.6382 13.4264 20.6325 13.5238 20.6267Z" fill="#F4C03A"/>
<path fill-rule="evenodd" clip-rule="evenodd" d="M50.8453 12.9904C50.8431 12.9444 50.8408 12.8985 50.8387 12.8527C50.8409 12.8986 50.8431 12.9445 50.8453 12.9904Z" fill="#F4C03A"/>
<path fill-rule="evenodd" clip-rule="evenodd" d="M54.1378 4.03688C54.1336 3.99089 54.1296 3.94496 54.1254 3.89913C54.1296 3.94512 54.1337 3.991 54.1378 4.03688Z" fill="#F4C03A"/>
<path fill-rule="evenodd" clip-rule="evenodd" d="M31.7616 4.45011C31.7622 4.40416 31.7628 4.35826 31.7634 4.31237C31.7629 4.35838 31.7623 4.40422 31.7616 4.45011Z" fill="#F4C03A"/>
<path fill-rule="evenodd" clip-rule="evenodd" d="M21.5903 17.087C21.6306 17.0885 21.6708 17.0899 21.7111 17.0914C21.621 17.1402 21.5155 17.09 21.5903 17.087Z" fill="#F4C03A"/>
<path fill-rule="evenodd" clip-rule="evenodd" d="M26.0241 21.6922C26.0731 21.6916 26.1219 21.6911 26.1703 21.6906C26.1211 21.6912 26.0726 21.6916 26.0241 21.6922Z" fill="#F4C03A"/>
<path fill-rule="evenodd" clip-rule="evenodd" d="M63.4239 21.8521C63.4183 21.8061 63.4128 21.7602 63.4072 21.7144C63.4128 21.7604 63.4183 21.8062 63.4239 21.8521Z" fill="#F4C03A"/>
<path fill-rule="evenodd" clip-rule="evenodd" d="M6.40591 12.8067C6.39961 12.8527 6.39331 12.8986 6.38709 12.9445C6.39339 12.8985 6.39969 12.8526 6.40591 12.8067Z" fill="#F4C03A"/>
<path fill-rule="evenodd" clip-rule="evenodd" d="M39.9133 6.89445C39.8258 6.93536 39.7202 6.91249 39.6209 6.91107C39.7184 6.90551 39.8159 6.9 39.9133 6.89445Z" fill="#F4C03A"/>
<path fill-rule="evenodd" clip-rule="evenodd" d="M62.975 23.6428C62.9762 23.5968 62.9774 23.5508 62.9785 23.5051C62.9773 23.5511 62.9762 23.597 62.975 23.6428Z" fill="#F4C03A"/>
<path fill-rule="evenodd" clip-rule="evenodd" d="M46.4472 25.3417C46.453 25.2957 46.4589 25.2497 46.4647 25.2039C46.4589 25.25 46.453 25.2958 46.4472 25.3417Z" fill="#F4C03A"/>
<path fill-rule="evenodd" clip-rule="evenodd" d="M5.11708 7.91404C5.16606 7.91584 5.21496 7.91758 5.26329 7.91942C5.21422 7.91767 5.16565 7.91584 5.11708 7.91404Z" fill="#F4C03A"/>
<path fill-rule="evenodd" clip-rule="evenodd" d="M37.5741 5.38395C37.4766 5.38891 37.3792 5.39387 37.2817 5.39883C37.3792 5.39387 37.4766 5.38891 37.5741 5.38395Z" fill="#F4C03A"/>
<path fill-rule="evenodd" clip-rule="evenodd" d="M30.5298 29.7496C30.5232 29.7955 30.5166 29.8415 30.51 29.8873C30.5166 29.8412 30.5232 29.7954 30.5298 29.7496Z" fill="#F4C03A"/>
<path fill-rule="evenodd" clip-rule="evenodd" d="M16.1554 12.3636C16.058 12.3682 15.9605 12.3728 15.863 12.3774C15.9605 12.3728 16.058 12.3682 16.1554 12.3636Z" fill="#F4C03A"/>
<path fill-rule="evenodd" clip-rule="evenodd" d="M28.4364 27.9432C28.6313 27.9384 28.8262 27.9335 29.0213 27.9286C28.8263 27.9335 28.6313 27.9383 28.4364 27.9432Z" fill="#F4C03A"/>
<path fill-rule="evenodd" clip-rule="evenodd" d="M46.2293 23.6428C46.2342 23.5662 46.2392 23.4896 46.244 23.4132C46.2391 23.4898 46.2342 23.5663 46.2293 23.6428Z" fill="#F4C03A"/>
<path fill-rule="evenodd" clip-rule="evenodd" d="M50.1475 2.92028C50.2693 2.91473 50.3911 2.90917 50.513 2.90361C50.3912 2.90917 50.2693 2.91473 50.1475 2.92028Z" fill="#F4C03A"/>
<path fill-rule="evenodd" clip-rule="evenodd" d="M15.3513 18.5159C15.4731 18.5207 15.595 18.5257 15.7168 18.5306C15.5949 18.5257 15.473 18.5207 15.3513 18.5159Z" fill="#F4C03A"/>
<path fill-rule="evenodd" clip-rule="evenodd" d="M24.0179 16.7555C23.9658 16.6866 23.9686 16.6254 24.0264 16.5718C24.0574 16.6343 24.0545 16.6955 24.0179 16.7555Z" fill="#F4C03A"/>
<path fill-rule="evenodd" clip-rule="evenodd" d="M59.0276 21.1174C59.0287 21.1788 59.0298 21.2401 59.031 21.3011C59.03 21.2397 59.0289 21.1786 59.0276 21.1174Z" fill="#F4C03A"/>
<path fill-rule="evenodd" clip-rule="evenodd" d="M29.7174 27.1324C29.7162 27.071 29.7151 27.0097 29.714 26.9487C29.7152 27.0103 29.7163 27.0713 29.7174 27.1324Z" fill="#F4C03A"/>
<path fill-rule="evenodd" clip-rule="evenodd" d="M26.2433 20.995C26.3408 21.0001 26.4383 21.0052 26.5357 21.0104C26.4383 21.0052 26.3408 21.0001 26.2433 20.995Z" fill="#F4C03A"/>
<path fill-rule="evenodd" clip-rule="evenodd" d="M24.4206 16.9813C24.4053 16.9075 24.4268 16.8801 24.4851 16.899C24.5005 16.9684 24.479 16.9958 24.4206 16.9813Z" fill="#F4C03A"/>
<path fill-rule="evenodd" clip-rule="evenodd" d="M28.0358 13.8628C28.0349 13.9088 28.0339 13.9547 28.0329 14.0005C28.034 13.9545 28.0349 13.9087 28.0358 13.8628Z" fill="#F4C03A"/>
<path fill-rule="evenodd" clip-rule="evenodd" d="M61.5887 22.5868C61.5882 22.5408 61.5875 22.4948 61.5869 22.449C61.5874 22.495 61.5881 22.5409 61.5887 22.5868Z" fill="#F4C03A"/>
<path fill-rule="evenodd" clip-rule="evenodd" d="M51.0978 2.91231C51.1953 2.91216 51.2929 2.91201 51.3904 2.91178C51.2928 2.91193 51.1953 2.91216 51.0978 2.91231Z" fill="#F4C03A"/>
<path fill-rule="evenodd" clip-rule="evenodd" d="M48.6854 8.52103L48.9779 8.50625L48.6854 8.52103Z" fill="#F4C03A"/>
<path fill-rule="evenodd" clip-rule="evenodd" d="M44.0801 16.2282C44.0312 16.2277 43.9822 16.2272 43.9339 16.2267C43.983 16.2272 44.0315 16.2277 44.0801 16.2282Z" fill="#F4C03A"/>
<path fill-rule="evenodd" clip-rule="evenodd" d="M45.7913 24.9743C45.7959 24.9284 45.8003 24.8824 45.8049 24.8366C45.8003 24.8826 45.7958 24.9285 45.7913 24.9743Z" fill="#F4C03A"/>
<path fill-rule="evenodd" clip-rule="evenodd" d="M34.5038 25.6843C34.4549 25.6854 34.4059 25.6866 34.3576 25.6878C34.4067 25.6866 34.4553 25.6854 34.5038 25.6843Z" fill="#F4C03A"/>
<path fill-rule="evenodd" clip-rule="evenodd" d="M28.0336 14.0465C28.0341 14.0924 28.0346 14.1385 28.0351 14.1842C28.0347 14.1381 28.0341 14.0923 28.0336 14.0465Z" fill="#F4C03A"/>
<path fill-rule="evenodd" clip-rule="evenodd" d="M23.6119 2.26909C23.5386 2.26917 23.4651 2.26924 23.3924 2.26924C23.4661 2.26924 23.5391 2.26917 23.6119 2.26909Z" fill="#F4C03A"/>
<path fill-rule="evenodd" clip-rule="evenodd" d="M23.9593 5.91942C24.0627 5.96163 24.078 6.00756 24.0052 6.05717C23.8879 6.05139 23.8728 6.00551 23.9593 5.91942Z" fill="#F4C03A"/>
<path fill-rule="evenodd" clip-rule="evenodd" d="M29.4598 4.01253C29.5573 4.01345 29.6548 4.01437 29.7522 4.01529C29.6547 4.01437 29.5572 4.01345 29.4598 4.01253Z" fill="#F4C03A"/>
<path fill-rule="evenodd" clip-rule="evenodd" d="M27.3768 4.77153C27.3766 4.81751 27.3763 4.86348 27.3761 4.90928C27.3763 4.86319 27.3766 4.81739 27.3768 4.77153Z" fill="#F4C03A"/>
<path fill-rule="evenodd" clip-rule="evenodd" d="M25.5855 4.84847L25.8779 4.83231L25.5855 4.84847Z" fill="#F4C03A"/>
<path fill-rule="evenodd" clip-rule="evenodd" d="M38.805 13.2845C38.0887 13.334 37.1779 13.291 36.5309 13.072C36.0823 12.9202 35.8744 12.4226 36.5258 12.3526C36.8916 12.3133 37.3305 12.5156 37.6538 12.5938C38.0386 12.6868 38.4403 12.7305 38.8366 12.7957C39.1056 12.84 39.4963 12.9516 39.2508 13.1932C39.2064 13.2368 38.8101 13.3682 38.805 13.2845Z" fill="black"/>
<path fill-rule="evenodd" clip-rule="evenodd" d="M48.9048 15.4978C48.8346 15.7866 48.8241 16.1056 48.6034 16.3695C48.2854 16.7501 48.2227 16.3424 48.2728 16.1334C48.3467 15.8251 48.3868 15.5095 48.3499 15.1979C48.3198 14.9426 48.0462 14.6436 48.2465 14.4138C48.793 14.6362 48.8042 15.1333 48.9048 15.4978Z" fill="black"/>
<path fill-rule="evenodd" clip-rule="evenodd" d="M48.9297 6.5152C48.6274 6.47173 48.1328 6.34618 48.5589 6.1691C48.7321 6.09713 49.0733 6.13166 49.2666 6.06422C49.3837 6.02341 49.4501 5.936 49.5674 5.90431C49.9564 5.7992 49.9963 5.97866 49.8499 6.20688C49.695 6.44828 49.3231 6.52693 48.9297 6.5152Z" fill="black"/>
<path fill-rule="evenodd" clip-rule="evenodd" d="M48.7548 4.99557C49.2516 4.76228 49.184 5.05373 48.9214 5.25899C48.8238 5.3282 48.726 5.39735 48.6281 5.46644L48.714 5.53244C48.6992 5.62635 48.8389 5.6958 48.6676 5.75728C48.3849 5.85885 48.1724 5.6188 48.1738 5.48588C48.1758 5.26533 48.5217 5.12704 48.7548 4.99557Z" fill="black"/>
<path fill-rule="evenodd" clip-rule="evenodd" d="M48.6907 5.0143C48.227 5.2999 48.2443 4.72492 48.4908 4.60096C48.964 4.363 48.6592 4.91501 48.6907 5.0143Z" fill="black"/>
<path fill-rule="evenodd" clip-rule="evenodd" d="M49.5775 5.23036C49.5444 5.12905 49.5402 4.6493 49.8614 4.68122C50.2107 4.71591 49.826 5.24545 49.5775 5.23036Z" fill="black"/>
<path fill-rule="evenodd" clip-rule="evenodd" d="M48.9779 6.53734C49.0268 6.53863 49.0758 6.53996 49.1241 6.5412C49.0749 6.53996 49.0264 6.53863 48.9779 6.53734Z" fill="#F4C03A"/>
<path fill-rule="evenodd" clip-rule="evenodd" d="M26.7066 2.93491C26.311 2.51161 27.2139 1.78884 27.666 2.37383C27.7273 2.45306 27.8661 2.6666 27.6991 2.73229C27.5198 2.8028 27.5582 2.70033 27.4106 2.6849C27.2348 2.66648 27.2922 2.61494 27.0879 2.67093C26.9427 2.7107 26.8069 2.8619 26.7066 2.93491Z" fill="black"/>
</svg>
