<svg width="88" height="132" viewBox="0 0 88 132" fill="none" xmlns="http://www.w3.org/2000/svg">
<path opacity="0.2" fill-rule="evenodd" clip-rule="evenodd" d="M83.0582 7.56113C85.4007 6.39957 88.5235 7.74672 87.2208 10.8174C85.8254 14.1056 80.6662 14.1463 77.7525 14.0811C78.0441 14.0658 78.9832 11.0504 79.3047 10.5948C80.2528 9.25065 81.6181 8.27651 83.0582 7.56113ZM56.0864 67.4753C55.259 68.1827 56.019 67.5416 56.0864 67.4753V67.4753ZM85.7807 22.828C87.1814 23.8881 87.2473 25.761 86.102 27.0293C84.7383 28.5392 82.2495 28.4856 80.3918 28.3394C79.5515 28.2732 75.0645 27.9197 76.1285 27.1919C76.0467 27.2226 75.8758 27.2969 75.6928 27.398C75.5943 27.7541 75.4908 28.109 75.3829 28.4623C75.4093 28.4776 75.4317 28.494 75.4599 28.5092C75.4294 28.4959 75.408 28.4816 75.3811 28.4682C74.3002 31.9995 72.7625 35.3622 70.7496 38.5085C71.5023 38.2147 72.2818 37.9921 73.0723 37.8928C75.4134 37.5984 80.337 39.3976 77.7169 42.4857C75.2047 45.4461 71.2975 42.2734 68.4482 41.837C65.6823 45.6587 62.6331 49.3214 59.4377 52.8618C59.6333 52.9224 59.805 53.0488 59.9033 53.2456C61.1848 52.6012 62.5204 51.6797 63.7062 51.4298C65.4174 51.0697 68.926 50.8501 70.2185 52.3661C71.8081 54.2304 70.1023 55.7461 68.2229 56.1047C65.4978 56.6249 61.9315 55.3082 59.3101 54.4187C59.0101 54.4713 58.6828 54.3846 58.4873 54.1472C58.4294 54.1284 58.3714 54.1099 58.3151 54.092C55.0792 57.6151 51.7196 61.0221 48.3806 64.3545C48.4161 64.3526 48.4516 64.3505 48.4886 64.3485C49.3595 63.7826 50.2935 63.3182 51.3058 63.0746C53.6476 62.5083 56.4025 62.5041 58.3017 64.181C60.1936 65.8507 60.8626 68.7722 58.9035 70.6492C54.9822 74.4063 49.2119 65.8472 47.235 65.4908C43.8418 68.8417 40.254 71.9727 36.6099 75.0406C37.0237 74.9156 37.4479 74.8237 37.8864 74.7823C41.4584 74.4419 49.84 78.7744 45.4543 83.0434C41.6325 86.7635 37.2148 79.6092 34.1377 77.108C30.7037 79.9674 27.2511 82.8072 23.8954 85.7577C25.725 85.2757 27.4931 85.2039 29.4539 85.7898C31.4829 86.3969 34.7566 87.9127 33.4724 90.6268C32.1662 93.3869 28.2348 92.1332 26.1872 91.2581C25.0704 90.781 22.8317 89.1694 20.8657 88.4911C15.5106 93.4984 10.8716 99.013 7.35845 105.508C5.16516 109.564 3.50013 113.896 2.32744 118.348C1.57891 121.19 0.104486 125.964 0.39728 129.662C-1.00355 122.26 1.54075 113.367 4.28006 106.749C6.79876 100.663 10.5663 95.3193 14.9785 90.5089C13.8736 87.2132 4.56168 82.4637 10.1315 79.3985C13.0892 77.7777 16.1163 80.463 16.7612 83.3082C17.2041 85.2634 16.5265 87.7207 15.8077 89.619C17.1956 88.1526 18.6385 86.7333 20.1251 85.3611C22.1797 83.4646 24.2835 81.623 26.4073 79.8047C22.9107 76.5516 19.6047 67.2486 24.296 65.7245C31.2235 63.4803 27.882 76.1739 27.3976 78.5529C27.2603 78.561 27.1534 78.52 27.0748 78.432C27.1136 78.6499 27.1587 78.8828 27.2134 79.1177C31.2784 75.6555 35.4036 72.2614 39.393 68.7166C39.0339 68.4538 38.4632 67.4492 38.0146 66.9146C37.0022 65.7094 36.0336 64.4504 35.326 63.0402C34.2082 60.8118 33.1308 57.257 36.0976 55.9444C39.3241 54.5143 40.855 58.5347 40.8763 60.9336C40.8907 62.5927 40.4337 64.1689 40.1952 65.7952C40.1207 66.3024 40.4056 68.5884 39.7084 67.6053C39.7411 67.9679 39.7458 68.2305 39.7293 68.4167C40.4456 67.7772 41.1563 67.1306 41.8625 66.4795C41.8299 66.3973 41.8057 66.3077 41.8002 66.2038C41.7627 65.4887 42.4895 65.2129 42.999 65.4221C43.9309 64.545 44.8537 63.6569 45.76 62.7511C47.681 60.8322 49.6298 58.8586 51.5652 56.843C51.1457 56.4861 51.3129 55.9916 50.9206 55.6127C50.5289 55.2347 49.7572 55.0259 49.2967 54.6748C48.1382 53.7913 47.1778 52.5037 46.4834 51.2364C45.3371 49.1425 43.8564 44.7493 47.209 43.7493C50.6647 42.7169 52.4163 46.9457 52.6371 49.5899C52.6801 50.1022 52.2904 54.7184 51.993 56.3948C55.5741 52.6488 59.0965 48.7623 62.2879 44.8085C61.3208 44.8001 58.5802 42.8393 58.0262 42.3042C56.6745 40.9989 54.5262 38.1144 56.8979 36.5861C59.0067 35.2307 61.6042 37.1911 62.5047 39.0971C62.6527 39.411 63.1737 42.3327 63.2138 43.6437C64.5347 41.967 65.7948 40.2805 66.9672 38.5886C67.7491 37.4638 68.4798 36.3093 69.1635 35.1302C68.9991 35.038 68.8445 34.8771 68.6985 34.677C65.1828 34.0878 60.7029 28.6572 64.8337 26.7648C66.8005 25.865 68.9319 27.7193 69.8944 29.2378C70.0915 29.5485 70.4104 31.1108 70.6698 32.343C72.6371 28.4373 74.141 24.3026 75.2862 20.0635C74.9802 19.9883 74.7211 19.7569 74.6871 19.3587C72.9806 18.3958 71.633 17.5939 70.4423 15.7412C69.7026 14.5904 68.3707 11.9611 70.5463 11.321C73.3775 10.4883 75.1534 14.7693 75.3839 16.8783C75.4108 17.1231 75.4094 17.8351 75.3998 18.4876C75.498 18.4743 75.5974 18.4758 75.6948 18.4928C76.3463 15.8679 76.8666 13.2093 77.2807 10.5463C75.7359 10.0546 75.4728 2.01872 76.5021 0.87397C78.8029 -1.68926 80.4232 2.01094 80.2995 3.96707C80.1533 6.27354 79.0969 8.37212 77.8393 10.2347C77.7044 10.432 77.7429 10.4224 77.7081 10.1477C77.6887 10.2835 77.6428 10.3837 77.5747 10.4564C77.639 11.6704 77.7647 12.9133 77.7034 13.9876C77.5279 17.0642 77.1644 20.1588 76.6375 23.196C76.5093 23.9347 76.3625 24.6674 76.1981 25.3937C77.4405 24.3453 79.1153 23.4135 79.7706 23.1221C81.4714 22.3664 84.0924 21.5501 85.7807 22.828ZM0.119057 129.37C0.201148 130.359 0.444955 131.261 0.924946 132C0.57259 131.155 0.308321 130.275 0.119057 129.37Z" fill="#C1DEE2"/>
</svg>
