<svg width="186" height="353" viewBox="0 0 186 353" fill="none" xmlns="http://www.w3.org/2000/svg">
<g opacity="0.5">
<path opacity="0.5" fill-rule="evenodd" clip-rule="evenodd" d="M118.48 74.0865C121.273 70.1031 126.458 59.9866 130.39 58.5632C132.922 57.6464 132.184 67.1299 132.215 68.9382C132.337 75.9342 131.656 82.8859 130.815 89.8231C129.299 102.334 124.344 113.477 117.548 124.125C114.051 129.604 109.949 135.15 104.268 138.569C101.653 140.143 98.5066 140.407 95.9241 141.764C92.9164 143.343 94.5544 142.066 93.1989 145.2C91.3165 149.552 90.7144 155.166 89.8435 159.809C85.8445 181.123 76.1631 293.797 77.8415 315.478C77.9906 317.4 75.311 317.86 75.1772 315.514C74.4662 303.074 80.6186 216.934 83.7225 188.763C86.8265 160.592 89.9675 135.705 93.1171 125.959C96.9379 114.135 103.839 99.9156 109.583 88.889C112.251 83.7664 115.16 78.8202 118.48 74.0865Z" fill="#69A1AC"/>
<path opacity="0.5" fill-rule="evenodd" clip-rule="evenodd" d="M139.215 212.251C146.484 206.914 154.353 216.986 147.775 222.324C144.138 225.274 140.337 224.225 138.196 221.766C136.807 223.459 135.507 225.23 134.257 226.726C130.45 231.284 126.852 235.95 123.413 240.726C116.269 250.646 110.147 261.127 103.746 271.417C97.4294 281.572 91.1629 291.779 85.4373 302.191C80.587 311.013 74.122 321.391 72.4614 331.062C74.981 310.551 84.5417 290.836 95.9269 272.754C107.219 254.821 120.179 235.235 137.664 221.083C135.884 218.466 135.835 214.73 139.215 212.251Z" fill="#C1DEE2"/>
<path opacity="0.5" fill-rule="evenodd" clip-rule="evenodd" d="M1.27186 162.228C5.33983 163.023 11.9869 172.226 15.3401 175.732C19.3252 179.898 22.9406 184.339 26.3486 188.992C33.6853 199.008 40.2467 209.657 45.8261 220.761C54.922 238.864 62.2091 257.447 67.4975 277.16C70.7348 289.227 72.8308 301.734 74.073 314.153C74.3076 316.496 76.7633 334.554 73.2248 335.041C70.0423 335.479 71.0253 321.329 70.8717 319.404C69.1362 297.689 63.937 276.56 56.705 256.092C55.1298 251.633 53.6664 246.172 51.1472 242.16C49.3331 239.27 51.1342 240.277 47.9461 239.184C45.2085 238.244 42.0895 238.474 39.2862 237.323C33.1964 234.826 28.3202 229.978 24.0458 225.101C15.7393 215.623 9.15673 205.37 5.72554 193.226C3.82215 186.493 2.07303 179.72 1.10238 172.778C0.851292 170.984 -1.34829 161.715 1.27186 162.228Z" fill="#69A1AC"/>
<path opacity="0.5" fill-rule="evenodd" clip-rule="evenodd" d="M17.3252 9.11819C32.6484 35.6925 45.2404 64.8837 53.3711 94.4499C58.2973 112.364 61.7424 130.746 65.1654 148.996C70.4652 177.253 75.4783 205.507 76.9042 234.266C78.3388 263.192 81.1757 296.554 71.7041 324.414C76.4352 296.129 71.9309 266.021 71.1333 237.56C70.7522 223.973 69.6478 210.519 68.199 197.012C66.7931 183.909 64.4962 170.869 62.3573 157.869C61.3154 151.537 60.2212 145.216 59.1071 138.898C58.7745 137.012 58.634 131.419 57.4382 130.131C56.2347 128.835 50.0943 128.306 48.1665 127.355C44.2845 125.44 40.633 122.719 37.4013 119.844C31.2061 114.332 25.8166 107.131 21.5628 100.032C11.7206 83.6056 7.78567 63.56 7.98455 44.5366C8.02277 40.8431 13.9627 1.07027 11.5771 0.522564C11.7208 0.354349 11.8566 0.180662 11.9847 0C13.7908 3.02396 15.5631 6.06841 17.3252 9.11819Z" fill="#89C5CC"/>
<path opacity="0.5" fill-rule="evenodd" clip-rule="evenodd" d="M182.713 104.961C182.95 104.62 184.488 102.248 183.713 102.4C185.291 102.091 181.543 105.015 185.475 103.221C183.608 104.984 184.685 107.274 184.71 109.646C184.751 113.498 184.106 117.319 183.381 121.088C182.234 127.046 180.527 132.839 178.048 138.381C172.645 150.458 163.471 162.084 152.58 169.634C147.203 173.362 141.934 174.631 135.802 176.347C131.928 177.431 131.621 179.435 129.565 183.194C125.285 191.022 121.081 198.822 117.306 206.915C112.798 216.578 108.423 226.252 104.295 236.086C90.3902 269.209 79.0729 303.525 73.1294 339.04C72.9838 318.111 77.8253 296.557 83.9323 276.609C88.3809 262.075 94.1721 248.065 100.349 234.196C101.846 230.836 104.114 226.515 104.75 222.805C105.195 220.206 103.834 217.707 103.211 214.969C100.782 204.308 100.956 192.364 103.089 181.645C105.441 169.826 112.242 164.34 123.746 162.666C127.954 162.054 133.301 162.278 137.16 160.484C141.363 158.531 143.097 152.109 145.487 147.987C151.907 136.914 159.535 126.295 168.293 116.965C170.718 114.382 173.327 111.998 176.093 109.789C177.838 108.395 181.524 106.678 182.713 104.961Z" fill="#89C5CC"/>
<path opacity="0.5" fill-rule="evenodd" clip-rule="evenodd" d="M53.7088 316.437H94.5379C96.3737 316.437 97.8618 317.925 97.8618 319.761C97.8618 319.923 97.8499 320.085 97.8263 320.246L94.6705 341.644C93.7085 348.167 88.1109 353 81.5171 353H66.7296C60.1358 353 54.5382 348.167 53.5762 341.644L50.4205 320.246C50.1527 318.43 51.4078 316.74 53.2239 316.472C53.3845 316.449 53.5465 316.437 53.7088 316.437Z" fill="#C1DEE2"/>
</g>
</svg>
