<svg width="135" height="107" viewBox="0 0 135 107" fill="none" xmlns="http://www.w3.org/2000/svg">
<path fill-rule="evenodd" clip-rule="evenodd" d="M125.011 106.941C114.499 83.7013 106.897 63.4648 103.845 52.788C98.6201 34.5067 94.6453 18.4202 93.6407 12.4127C91.245 -1.91285 112.069 -2.74706 114.822 4.37249C118.988 15.1482 126.261 50.5528 135 104.03L125.011 106.941ZM3.07662 34.0075C12.7215 30.1995 46.4972 18.2822 62.7872 14.911C67.4683 13.9422 72.0054 13.0421 76.271 12.2287C88.95 9.81096 95.5188 32.6585 83.3075 34.414C52.8963 38.7859 9.78326 43.3006 6.09373 43.8073C0.922699 44.5174 -2.98486 36.4008 3.07662 34.0075Z" fill="#B28B67"/>
</svg>
